<svg width="170" height="39" viewBox="0 0 170 39" fill="none" xmlns="http://www.w3.org/2000/svg">
  <path
    d="M17.9249 16.6068L21.1185 26.8419L24.209 16.6068V15.9802C24.1746 15.9106 24.0441 15.6878 23.7969 15.3536C23.5497 15.0193 23.4192 14.518 23.3848 14.3092V12.2204C23.3848 11.552 22.8354 11.0367 22.5607 10.8627C22.2516 10.6886 21.4275 10.3405 20.6034 10.3405C19.7792 10.3405 19.3672 10.7582 19.2642 10.9671C19.0925 10.9671 18.6667 11.0089 18.337 11.176C18.0074 11.3431 17.9936 11.8026 18.028 12.0115H18.8521C19.0993 12.0115 19.3328 12.0115 19.4702 12.2204C19.6075 12.4292 19.8823 12.9932 19.8823 13.5781C19.8823 14.3092 19.6762 14.7269 19.2642 15.1447C18.9244 15.4892 18.2683 15.9454 17.9249 16.0846V16.6068Z"
    fill="#212330" />
  <path
    d="M20.2943 35.0926C20.2943 34.1527 20.8781 32.5513 21.1185 31.855C21.3588 32.6209 21.8396 34.0483 21.8396 35.0926C21.8396 37.3903 21.4275 37.4948 21.1185 38.2258C20.8094 37.5644 20.2943 37.3903 20.2943 35.0926Z"
    fill="#212330" />
  <path
    d="M16.5857 28.8263C16.9978 28.1997 17.6846 26.5286 17.9249 25.6931L18.337 25.902C18.337 26.4242 18.1104 28.0117 17.6159 29.3485C17.1214 30.6853 15.4869 30.9499 14.7314 30.9151C15.1435 30.4277 16.1978 29.4162 16.5857 28.8263Z"
    fill="#212330" />
  <path
    d="M18.543 34.0483C18.9551 33.3798 20.054 31.0891 20.3973 30.184C20.3973 31.5417 20.3973 33.8974 19.3672 35.406C18.7253 36.3459 17.3412 36.3807 16.6887 36.3459C17.2382 35.7541 18.131 34.7167 18.543 34.0483Z"
    fill="#212330" />
  <path
    d="M19.3672 29.1396C19.3672 28.7218 19.0581 27.7819 18.8521 27.2597C19.4702 27.7819 20.0883 28.4085 20.0883 29.1396C20.0883 29.8707 19.9363 30.3964 19.5732 31.3328C19.2985 32.0416 18.8537 32.6584 18.5431 33.1083C17.9662 33.9438 17.2725 34.5008 16.9978 34.6749H14.1133L16.8948 32.795C17.3893 32.4608 18.337 31.5417 18.9551 30.3929C19.0581 30.1492 19.3672 29.5656 19.3672 29.1396Z"
    fill="#212330" />
  <path
    d="M15.3495 26.9464C14.7726 27.6148 12.9115 28.7567 12.053 29.2441C12.8428 29.3833 14.6284 29.5156 15.4525 28.9307C16.2767 28.3459 17.1695 26.459 17.5129 25.5887L16.9978 24.8576C16.6887 25.2754 15.9264 26.278 15.3495 26.9464Z"
    fill="#212330" />
  <path
    d="M18.44 22.5599C17.8631 20.6383 17.8563 17.7905 17.9249 16.6068L17.6159 16.5024C16.9978 17.3032 15.7616 19.6356 15.7616 22.1422C15.7616 24.6487 19.0581 27.4338 20.7064 28.513C20.1913 27.3293 19.0169 24.4816 18.44 22.5599Z"
    fill="#212330" />
  <path
    d="M14.9374 21.3067C14.9374 19.7192 16.6544 17.1987 17.5129 16.5024H16.7918C15.2808 17.1987 12.259 18.9672 12.259 20.4711C12.259 21.9751 14.182 24.0917 15.1435 24.962C15.0748 24.1613 14.9374 22.8941 14.9374 21.3067Z"
    fill="#212330" />
  <path
    d="M10.8168 18.2779C11.6409 18.2779 15.2122 17.0246 16.8948 16.398L16.7918 16.0847L6.38704 15.0403C7.52023 16.1195 9.99264 18.2779 10.8168 18.2779Z"
    fill="#212330" />
  <path
    d="M5.56292 13.3692C6.79912 14.7061 13.6326 15.5973 16.8948 15.8758V15.6669L2.57543 8.04283C3.05618 9.26129 4.32672 12.0324 5.56292 13.3692Z"
    fill="#212330" />
  <path
    d="M17.6159 15.5625C17.6159 15.8967 17.7876 16.0498 17.9249 16.0846V16.6068L16.7918 16.5024V16.0847L16.8948 15.6669C12.6711 13.1952 3.72921 7.7295 2.16336 6.47623C0.597498 5.22295 0.068678 1.6372 0 0.000976562C0.68678 0.766866 2.18396 2.48664 2.67844 3.2386C3.17292 3.99057 5.9063 6.05847 7.21118 6.99843C10.027 8.59983 15.8028 11.9697 16.3797 12.6382C17.1008 13.4737 17.6159 15.1447 17.6159 15.5625Z"
    fill="#212330" />
  <path
    d="M25.6512 28.8263C25.2392 28.1997 24.5524 26.5286 24.312 25.6931L23.8999 25.902C23.8999 26.4242 24.1266 28.0117 24.6211 29.3485C25.1155 30.6853 26.7501 30.9499 27.5055 30.9151C27.0935 30.4277 26.0391 29.4162 25.6512 28.8263Z"
    fill="#212330" />
  <path
    d="M23.6939 34.0483C23.2818 33.3798 22.183 31.0891 21.8396 30.184C21.8396 31.5417 21.8396 33.8974 22.8698 35.406C23.5116 36.3459 24.8958 36.3807 25.5482 36.3459C24.9988 35.7541 24.106 34.7167 23.6939 34.0483Z"
    fill="#212330" />
  <path
    d="M22.8698 29.1396C22.8698 28.7218 23.1788 27.7819 23.3848 27.2597C22.7667 27.7819 22.1486 28.4085 22.1486 29.1396C22.1486 29.8707 22.3007 30.3964 22.6637 31.3328C22.9385 32.0416 23.3832 32.6584 23.6939 33.1083C24.2708 33.9438 24.9644 34.5008 25.2391 34.6749H28.1236L25.3422 32.795C24.8477 32.4608 23.8999 31.5417 23.2818 30.3929C23.1788 30.1492 22.8698 29.5656 22.8698 29.1396Z"
    fill="#212330" />
  <path
    d="M26.8874 26.9464C27.4643 27.6148 29.3255 28.7567 30.184 29.2441C29.3942 29.3833 27.6085 29.5156 26.7844 28.9307C25.9603 28.3459 25.0675 26.459 24.7241 25.5887L25.2392 24.8576C25.5482 25.2754 26.3105 26.278 26.8874 26.9464Z"
    fill="#212330" />
  <path
    d="M23.7969 22.5599C24.3738 20.6383 24.2777 17.7905 24.209 16.6068L24.621 16.5024C25.2391 17.3032 26.4753 19.6356 26.4753 22.1422C26.4753 24.6487 23.1788 27.4338 21.5305 28.513C22.0456 27.3293 23.22 24.4816 23.7969 22.5599Z"
    fill="#212330" />
  <path
    d="M27.2995 21.3067C27.2995 19.7192 25.5825 17.1987 24.7241 16.5024H25.4452C26.9561 17.1987 29.9779 18.9672 29.9779 20.4711C29.9779 21.9751 28.0549 24.0917 27.0934 24.962C27.1621 24.1613 27.2995 22.8941 27.2995 21.3067Z"
    fill="#212330" />
  <path
    d="M31.4202 18.2779C30.596 18.2779 27.0248 17.0246 25.3422 16.398L25.4452 16.0847L35.8499 15.0403C34.7167 16.1195 32.2443 18.2779 31.4202 18.2779Z"
    fill="#212330" />
  <path
    d="M36.674 13.3692C35.4378 14.7061 28.6044 15.5973 25.3422 15.8758V15.6669L39.6615 8.04283C39.1808 9.26129 37.9102 12.0324 36.674 13.3692Z"
    fill="#212330" />
  <path
    d="M24.621 15.5625C24.621 15.8967 24.3463 15.9454 24.209 15.9802V16.6068L25.4452 16.5024L25.4452 16.0847L25.3422 15.6669C29.5659 13.1952 38.5077 7.7295 40.0736 6.47623C41.6394 5.22295 42.1683 1.6372 42.2369 0.000976562C41.5502 0.766866 40.053 2.48664 39.5585 3.2386C39.064 3.99057 36.3306 6.05847 35.0258 6.99843C32.21 8.59983 26.4341 11.9697 25.8573 12.6382C25.1361 13.4737 24.621 15.1447 24.621 15.5625Z"
    fill="#212330" />
  <path
    d="M63.254 31.3684C62.1728 31.3684 61.1028 31.0715 60.044 30.4777C58.9853 29.8611 58.1406 28.6735 57.5098 26.9151L56.6651 24.6884H47.204L44.5008 31.1971H42.9803L52.4414 8.58801H53.4551L60.8888 26.9151C61.4519 28.2396 61.9813 29.1531 62.4769 29.6556C62.9725 30.1351 63.682 30.4206 64.6056 30.512V31.1971C64.2002 31.3113 63.7496 31.3684 63.254 31.3684ZM55.9893 23.3182L51.9345 13.3839L47.7108 23.3182H55.9893Z"
    fill="#212330" />
  <path
    d="M67.2486 9.95826C64.4328 9.95826 63.0249 11.2714 63.0249 13.8977H62.3491V11.3285C62.3491 9.50151 63.3065 8.58801 65.2212 8.58801H80.9334V9.95826H73.3307V31.1971H70.2897V9.95826H67.2486Z"
    fill="#212330" />
  <path
    d="M84.9208 12.6988C84.9208 11.534 84.7631 10.6776 84.4478 10.1295C84.1324 9.5586 83.5016 9.27313 82.5555 9.27313H81.8797V8.58801H84.9208C85.7543 8.58801 86.3738 8.7022 86.7792 8.93057C87.2072 9.13611 87.5113 9.52435 87.6916 10.0953C87.8718 10.6662 87.9619 11.534 87.9619 12.6988V18.8649H98.0987V8.58801H101.14V27.0863C101.14 28.251 101.297 29.1189 101.613 29.6898C101.928 30.2379 102.559 30.512 103.505 30.512H104.181V31.1971H101.14C100.306 31.1971 99.6756 31.0943 99.2476 30.8888C98.8421 30.6604 98.5493 30.2607 98.369 29.6898C98.1888 29.1189 98.0987 28.251 98.0987 27.0863V20.2351H87.9619V31.1971H84.9208V12.6988Z"
    fill="#212330" />
  <path
    d="M108.349 12.6988C108.349 11.534 108.191 10.6776 107.876 10.1295C107.561 9.5586 106.93 9.27313 105.984 9.27313H105.308V8.58801H119.702C121.617 8.58801 122.575 9.50151 122.575 11.3285V13.8977H121.899C121.899 11.2714 120.491 9.95826 117.675 9.95826H111.39V18.8649H120.513V20.2351H111.39V29.8268H117.303C118.858 29.8268 120.074 29.5414 120.953 28.9704C121.831 28.3995 122.529 27.4289 123.048 26.0587L123.723 26.2299L122.541 29.4843C122.135 30.6261 121.291 31.1971 120.007 31.1971H108.349V12.6988Z"
    fill="#212330" />
  <path
    d="M129.766 31.1971H128.415V12.6988C128.415 11.6026 128.178 10.7576 127.705 10.1638C127.255 9.57002 126.478 9.27313 125.374 9.27313H125.036V8.58801H127.232C128.268 8.58801 129.147 8.75929 129.868 9.10185C130.589 9.44441 131.231 9.95826 131.794 10.6434L143.62 25.5448V8.58801H144.972V31.5396H144.296L129.766 13.2126V31.1971Z"
    fill="#212330" />
  <path
    d="M168.648 31.3684C167.567 31.3684 166.497 31.0715 165.438 30.4777C164.38 29.8611 163.535 28.6735 162.904 26.9151L162.059 24.6884H152.598L149.895 31.1971H148.375L157.836 8.58801H158.849L166.283 26.9151C166.846 28.2396 167.376 29.1531 167.871 29.6556C168.367 30.1351 169.076 30.4206 170 30.512V31.1971C169.595 31.3113 169.144 31.3684 168.648 31.3684ZM161.384 23.3182L157.329 13.3839L153.105 23.3182H161.384Z"
    fill="#212330" />
</svg>