<svg width="522" height="480" viewBox="0 0 522 480" fill="none" xmlns="http://www.w3.org/2000/svg">
<g clip-path="url(#clip0_115_423)">
<path d="M89.5612 280.875L14.3149 294.925L25.5731 354.948L100.819 340.898L89.5612 280.875Z" fill="#F5F5F5"/>
<path d="M89.5805 280.894L89.2155 280.982L88.1096 281.192L84.0287 281.986L68.6231 284.932L14.3771 295.194L14.5872 294.886C17.905 312.75 21.7979 333.23 25.8788 354.902L25.5359 354.659L100.739 340.668L100.551 340.954C97.2335 322.88 94.4466 307.906 92.5112 297.412C91.5601 292.171 90.8081 288.055 90.2993 285.274C90.045 283.873 89.857 282.803 89.7243 282.052C89.5915 281.302 89.5362 280.949 89.5362 280.949C89.5362 280.949 89.6247 281.302 89.7574 282.052L90.3878 285.219C90.9297 288.033 91.7149 292.127 92.7213 297.357C94.7231 307.873 97.5764 322.891 101.027 341.01L101.082 341.241L100.839 341.297L25.5912 355.31L25.3037 355.366L25.2484 355.068C21.2007 333.396 17.3631 312.916 14.0232 295.04V294.786L14.2886 294.731L68.7447 284.69L84.1061 281.887L88.1649 281.159L89.1934 280.982L89.5805 280.894Z" fill="#E0E0E0"/>
<path d="M87.5753 285.153L17.6121 298.217L27.4524 350.68L97.4156 337.616L87.5753 285.153Z" fill="#EBEBEB"/>
<path d="M27.4271 350.698L45.7524 313.523L64.708 331.101L72.9362 318.279L97.3883 337.644L27.4271 350.698Z" fill="#E0E0E0"/>
<path d="M66.566 305.512C66.77 306.599 66.6463 307.723 66.2105 308.74C65.7747 309.757 65.0464 310.623 64.1177 311.227C63.189 311.831 62.1015 312.147 60.9928 312.135C59.884 312.123 58.8038 311.783 57.8887 311.158C56.9736 310.534 56.2646 309.652 55.8514 308.626C55.4382 307.599 55.3394 306.473 55.5674 305.391C55.7954 304.308 56.34 303.317 57.1323 302.543C57.9247 301.769 58.9292 301.247 60.0189 301.043C60.7429 300.907 61.4866 300.915 62.2076 301.066C62.9285 301.217 63.6126 301.509 64.2206 301.924C64.8286 302.339 65.3487 302.869 65.7512 303.485C66.1536 304.101 66.4305 304.789 66.566 305.512Z" fill="#E0E0E0"/>
<path d="M202.3 29.4039L163.776 241.755L321.355 270.214L359.879 57.863L202.3 29.4039Z" fill="#FAFAFA"/>
<path d="M321.351 270.224C321.351 270.224 321.406 269.87 321.517 269.208L322.047 266.218C322.512 263.592 323.209 259.708 324.104 254.665C325.929 244.557 328.583 229.793 331.946 211.101L359.594 57.8318L359.815 58.1408L202.275 29.7049L202.618 29.4622C188.241 108.679 174.892 182.058 164.032 241.799L163.844 241.523L278.341 262.334L310.114 268.138L318.475 269.683C320.366 270.025 321.351 270.224 321.351 270.224L318.52 269.738L310.192 268.259L278.418 262.621L163.733 242.03H163.501V241.799C174.328 182.036 187.632 108.657 201.987 29.4401V29.1532H202.286L359.926 57.6111L360.191 57.6663V57.9201C348.723 120.817 339.035 173.926 332.222 211.299L324.259 254.775C323.33 259.796 322.623 263.603 322.136 266.273C321.893 267.564 321.716 268.546 321.594 269.219L321.351 270.224Z" fill="#E0E0E0"/>
<path d="M282.517 63.9281L215.611 51.8447L205.061 110L271.966 122.084L282.517 63.9281Z" fill="#E0E0E0"/>
<path d="M335.88 73.5657L293.046 65.8298L291.669 73.4196L334.503 81.1555L335.88 73.5657Z" fill="#E0E0E0"/>
<path d="M326.003 144.083L203.749 122.004L202.372 129.594L324.626 151.673L326.003 144.083Z" fill="#E0E0E0"/>
<path d="M323.59 157.442L201.336 135.363L199.959 142.952L322.213 165.032L323.59 157.442Z" fill="#E0E0E0"/>
<path d="M321.168 170.801L198.914 148.721L197.537 156.311L319.791 178.391L321.168 170.801Z" fill="#E0E0E0"/>
<path d="M318.733 184.158L196.479 162.078L195.102 169.668L317.356 191.747L318.733 184.158Z" fill="#E0E0E0"/>
<path d="M316.311 197.505L194.057 175.426L192.68 183.016L314.934 205.095L316.311 197.505Z" fill="#E0E0E0"/>
<path d="M308.003 243.308L185.749 221.229L184.372 228.819L306.626 250.898L308.003 243.308Z" fill="#E0E0E0"/>
<path d="M258.754 200.911L191.642 188.79L190.265 196.38L257.377 208.501L258.754 200.911Z" fill="#E0E0E0"/>
<path d="M333.656 85.8515L290.823 78.1156L289.446 85.7054L332.279 93.4412L333.656 85.8515Z" fill="#E0E0E0"/>
<path d="M329.805 98.2921L287.146 90.4744L285.755 98.0332L328.413 105.851L329.805 98.2921Z" fill="#E0E0E0"/>
<path d="M312.776 107.437L286.364 102.667L284.987 110.256L311.399 115.026L312.776 107.437Z" fill="#E0E0E0"/>
<path d="M392.606 28.4249L379.014 28.9766L377.543 32.7725C377.123 33.7613 376.898 34.8215 376.88 35.8952C376.866 36.37 376.985 36.8392 377.223 37.2504C377.461 37.6616 377.81 37.9985 378.229 38.2235C379.457 38.6144 380.745 38.7899 382.033 38.7421V39.8456L369.381 40.309V39.2056C370.667 38.9834 371.838 38.3293 372.699 37.3518C374.008 35.5424 375.04 33.5492 375.763 31.4373L388.182 0.297974H388.724L403.864 31.1945C405.339 34.1371 406.504 35.9761 407.359 36.7118C408.151 37.3198 409.125 37.6426 410.124 37.6276V38.6649L391.511 39.4152V38.3669H392.285C393.375 38.4177 394.457 38.1574 395.404 37.6166C395.605 37.4633 395.764 37.2611 395.864 37.0293C395.965 36.7975 396.004 36.5438 395.979 36.2925C395.961 35.9382 395.891 35.5885 395.769 35.2552C395.769 35.0897 395.404 34.3835 394.829 33.1697L392.606 28.4249ZM391.555 26.3725L385.296 13.3738L379.921 26.8359L391.555 26.3725Z" fill="#E0E0E0"/>
<path d="M418.344 108.602L356.182 129.319L372.782 178.907L434.944 158.191L418.344 108.602Z" fill="#F5F5F5"/>
<path d="M417.146 112.465L359.358 131.724L373.867 175.064L431.655 155.806L417.146 112.465Z" fill="#EBEBEB"/>
<path d="M373.871 175.084L385.041 141.418L403.179 154.108L408.642 142.268L431.656 155.829L373.871 175.084Z" fill="#E0E0E0"/>
<path d="M401.741 132.182C402.042 133.08 402.069 134.048 401.82 134.962C401.57 135.876 401.054 136.695 400.337 137.316C399.62 137.938 398.735 138.333 397.793 138.452C396.851 138.571 395.895 138.409 395.046 137.986C394.196 137.563 393.492 136.898 393.021 136.076C392.55 135.253 392.334 134.309 392.401 133.364C392.468 132.42 392.814 131.516 393.396 130.767C393.978 130.018 394.769 129.459 395.669 129.159C396.267 128.958 396.898 128.877 397.527 128.921C398.156 128.964 398.77 129.131 399.335 129.412C399.899 129.693 400.402 130.082 400.815 130.558C401.228 131.033 401.542 131.585 401.741 132.182Z" fill="#E0E0E0"/>
<path d="M420.069 50.9336L404.853 128.457L502.032 147.445L517.248 69.9215L420.069 50.9336Z" fill="#F5F5F5"/>
<path d="M517.267 69.9256L516.791 69.8484L515.42 69.6056L510.133 68.6015L490.227 64.7835L420.033 51.2001L420.343 50.9904C415.819 74.0635 410.644 100.513 405.158 128.508L404.926 128.155L502.093 147.211L501.806 147.399C506.439 124.072 510.277 104.728 512.964 91.2111C514.325 84.447 515.386 79.1394 516.116 75.5091C516.481 73.6994 516.758 72.3201 516.957 71.3601C517.156 70.4001 517.267 69.9256 517.267 69.9256C517.267 69.9256 517.189 70.4001 517.012 71.327C516.835 72.2539 516.581 73.6442 516.238 75.4318C515.541 79.0511 514.524 84.3477 513.23 91.1008C510.598 104.673 506.827 124.083 502.292 147.498L502.237 147.741H502.005L404.771 128.75L404.484 128.695L404.539 128.408C410.069 100.425 415.255 73.9753 419.79 50.9022L419.845 50.6373L420.099 50.6925L490.448 64.5518L510.266 68.5022L515.497 69.6056L516.824 69.8815L517.267 69.9256Z" fill="#E0E0E0"/>
<path d="M422.472 56.471L409.174 124.227L499.526 141.881L512.825 74.125L422.472 56.471Z" fill="#EBEBEB"/>
<path d="M409.173 124.237L448.997 88.287L463.375 118.455L479.399 106.957L499.527 141.892L409.173 124.237Z" fill="#E0E0E0"/>
<path d="M477.862 88.5628C477.588 89.9685 476.903 91.2615 475.892 92.2783C474.881 93.2951 473.591 93.99 472.185 94.275C470.778 94.5601 469.319 94.4224 467.99 93.8796C466.662 93.3367 465.525 92.413 464.724 91.2253C463.922 90.0376 463.491 88.6393 463.486 87.2073C463.481 85.7753 463.901 84.3739 464.695 83.1805C465.488 81.9871 466.618 81.0552 467.942 80.5028C469.266 79.9505 470.725 79.8024 472.134 80.0773C473.069 80.2583 473.959 80.6215 474.753 81.1461C475.547 81.6708 476.23 82.3465 476.762 83.1347C477.294 83.9228 477.665 84.8079 477.854 85.7394C478.043 86.6708 478.045 87.6302 477.862 88.5628Z" fill="#E0E0E0"/>
<path d="M46.1616 7.95589L51.1825 66.4166L73.9094 72.5628L117.992 67.4538L111.788 1.64417L46.1616 7.95589Z" fill="#F5F5F5"/>
<path d="M58.1167 61.1642L51.1936 66.4166C53.8251 68.693 56.9019 70.3989 60.2291 71.4263C64.677 72.6609 69.3205 73.0355 73.9095 72.5297C73.9095 72.5297 63.4142 70.7531 58.1167 61.1642Z" fill="#EBEBEB"/>
<path d="M106.479 23.1725C106.479 23.2828 95.3313 24.4414 81.5625 25.7766C67.7936 27.1118 56.6016 28.1049 56.5905 27.9835C56.5795 27.8621 67.7383 26.6814 81.5182 25.3794C95.2982 24.0773 106.468 23.029 106.479 23.1725Z" fill="#E0E0E0"/>
<path d="M107.132 32.1325C107.132 32.2428 95.9838 33.4125 82.215 34.7476C68.4461 36.0828 57.2541 37.0649 57.2431 36.9545C57.232 36.8442 68.3908 35.6745 82.1708 34.3394C95.9507 33.0042 107.121 32 107.132 32.1325Z" fill="#E0E0E0"/>
<path d="M108.182 40.0662C108.182 40.1765 97.0344 41.3462 83.2656 42.6703C69.4967 43.9945 58.3158 44.9986 58.3047 44.8772C58.2936 44.7558 69.4414 43.6083 83.2213 42.2731C97.0013 40.9379 108.171 39.9559 108.182 40.0662Z" fill="#E0E0E0"/>
<path d="M108.879 47.7352C108.879 47.8345 97.7312 49.0041 83.9513 50.3393C70.1713 51.6745 59.0014 52.6676 58.9904 52.5462C58.9793 52.4248 70.1382 51.2662 83.9181 49.9421C97.698 48.6179 108.868 47.6248 108.879 47.7352Z" fill="#E0E0E0"/>
<path d="M521.325 478.786C521.325 478.941 404.76 479.073 261.011 479.073C117.262 479.073 0.674622 478.941 0.674622 478.786C0.674622 478.632 117.207 478.488 261.011 478.488C404.815 478.488 521.325 478.621 521.325 478.786Z" fill="#263238"/>
<path d="M32.0057 109.628L78.6318 376.022L275.244 345.225L284.357 323.255L231.162 76.9325L46.8694 87.9008L32.0057 109.628Z" fill="#E0E0E0"/>
<path opacity="0.3" d="M78.6318 376.022L92.5997 354.67L45.9736 88.2649L32.0057 109.628L78.6318 376.022Z" fill="black"/>
<path d="M45.9736 88.2649L92.5997 354.67L284.357 323.255L235.906 61.2415L45.9736 88.2649Z" fill="#FAFAFA"/>
<path d="M45.9736 88.2759L235.873 61.0208H236.105V61.2414C249.697 134.411 266.53 225.104 284.645 323.2L284.7 323.498L284.402 323.553L281.239 324.072L92.644 354.968H92.3785V354.704C64.9514 197.363 46.3828 90.6152 45.9736 88.2759C46.3828 90.6263 65.1726 197.33 92.8652 354.626L92.5555 354.417L281.139 323.52L284.302 323.001L284.059 323.344C265.944 225.236 249.2 134.544 235.674 61.3187L235.94 61.5063L45.9736 88.2759Z" fill="#263238"/>
<path d="M199.72 214.428C202.097 196.577 189.521 180.182 171.629 177.81C153.738 175.437 137.306 187.986 134.929 205.837C132.551 223.688 145.127 240.083 163.019 242.455C180.91 244.827 197.342 232.279 199.72 214.428Z" fill="#4A4E68"/>
<path d="M152.331 218.681L150.849 209.291L183.441 204.138L184.834 212.966C184.834 212.966 182.844 220.557 169.661 222.632C156.478 224.706 152.331 218.681 152.331 218.681Z" fill="white"/>
<path d="M145.707 209.346L168.964 213.473L189.137 202.152L165.846 198.477L145.707 209.346Z" fill="white"/>
<path d="M210.779 118.26L95.2166 136.481C93.7988 136.704 92.8311 138.032 93.0551 139.447L93.4453 141.91C93.6693 143.325 95.0003 144.29 96.418 144.067L211.981 125.846C213.398 125.622 214.366 124.294 214.142 122.88L213.752 120.416C213.528 119.002 212.197 118.036 210.779 118.26Z" fill="#E0E0E0"/>
<path d="M192.496 137.439L119.209 148.995C117.791 149.218 116.823 150.546 117.047 151.961L117.438 154.424C117.662 155.839 118.993 156.804 120.41 156.581L193.698 145.025C195.116 144.802 196.083 143.474 195.859 142.059L195.469 139.596C195.245 138.181 193.914 137.216 192.496 137.439Z" fill="#E0E0E0"/>
<path d="M218.894 300.893L145.607 312.449C144.189 312.672 143.221 314 143.445 315.415L143.835 317.878C144.059 319.293 145.39 320.258 146.808 320.034L220.096 308.479C221.513 308.256 222.481 306.928 222.257 305.513L221.867 303.05C221.643 301.635 220.312 300.67 218.894 300.893Z" fill="#E0E0E0"/>
<path d="M274.481 330.659L273.552 330.836L270.81 331.31L260.204 333.076L220.822 339.52L87.7779 361.092L87.4903 361.148V360.861C85.6324 350.323 83.6749 339.288 81.6842 328.044C70.9788 267.63 61.335 212.966 54.3566 173.363C50.895 153.567 48.097 137.556 46.1506 126.477C45.1995 120.96 44.4585 116.646 43.9387 113.721C43.6954 112.265 43.5074 111.161 43.3747 110.411C43.242 109.661 43.2088 109.308 43.2088 109.308C43.2088 109.308 43.2973 109.694 43.441 110.411C43.5848 111.128 43.7839 112.276 44.0493 113.721C44.5802 116.646 45.3543 120.938 46.3607 126.455C48.3403 137.49 51.2047 153.534 54.7437 173.308C61.7663 212.899 71.4764 267.564 82.1929 327.967C84.1836 339.2 86.13 350.246 87.9991 360.783L87.6562 360.541L220.744 339.156L260.148 332.888L270.765 331.222L273.519 330.803L274.481 330.659Z" fill="#263238"/>
<path d="M259.894 340.679L259.02 340.855L256.432 341.308L246.413 343.007L209.165 349.208L82.7569 370.086H82.4694V369.81L75.2034 330.45C64.3763 270.864 54.5777 216.96 47.4777 177.92C43.9608 158.411 41.1075 142.61 39.1389 131.686C38.1768 126.235 37.4137 121.997 36.9271 119.106C36.6838 117.683 36.4847 116.59 36.363 115.796C36.2414 115.001 36.1861 114.693 36.1861 114.693C36.1861 114.693 36.2746 115.057 36.4183 115.796L37.0487 119.106C37.5796 121.986 38.3758 126.212 39.3933 131.653L47.909 177.854C55.0533 216.894 64.9182 270.797 75.8116 330.35C78.2668 343.846 80.6777 357.054 82.9891 369.755L82.6574 369.523L209.076 348.844L246.346 342.808L256.377 341.208L258.976 340.811L259.894 340.679Z" fill="#263238"/>
<path d="M50.6075 201.081L46.2833 207.172L56.7786 269.948L63.0271 272.066L50.6075 201.081Z" fill="#263238"/>
<path d="M80.5546 195.854L50.617 201.073L63.0457 272.053L92.9833 266.834L80.5546 195.854Z" fill="#263238"/>
<path d="M81.5088 193.101L79.5587 193.441C78.4455 193.635 77.7006 194.692 77.8949 195.803L90.4709 267.698C90.6652 268.809 91.725 269.552 92.8382 269.358L94.7883 269.018C95.9014 268.825 96.6463 267.767 96.4521 266.656L83.8761 194.761C83.6818 193.651 82.6219 192.907 81.5088 193.101Z" fill="#263238"/>
<path d="M45.4317 252.436C42.1144 252.423 38.9139 251.212 36.4217 249.027C33.9294 246.843 32.3137 243.832 31.873 240.552C31.4926 237.749 31.9921 234.898 33.3028 232.39C34.6134 229.882 36.6707 227.841 39.1916 226.548C41.7125 225.254 44.5732 224.772 47.38 225.168C50.1868 225.563 52.8019 226.817 54.8653 228.756L73.5556 218.163C73.9133 217.96 74.3145 217.847 74.7255 217.831C75.1365 217.816 75.5451 217.9 75.9169 218.075C76.2888 218.25 76.613 218.512 76.8622 218.838C77.1114 219.165 77.2783 219.546 77.3489 219.95L81.7726 245.208C81.8455 245.61 81.8204 246.024 81.6996 246.414C81.5789 246.804 81.3659 247.16 81.0786 247.451C80.7913 247.742 80.4382 247.959 80.049 248.086C79.6597 248.212 79.2458 248.243 78.8419 248.177L57.7407 244.866C56.5983 247.148 54.8416 249.066 52.6674 250.407C50.4933 251.748 47.9877 252.458 45.4317 252.458V252.436ZM45.4317 227.266C44.8764 227.263 44.3217 227.303 43.7728 227.388C40.7976 227.87 38.1238 229.48 36.3087 231.881C34.4935 234.282 33.6771 237.289 34.0295 240.276C34.3645 242.774 35.5143 245.092 37.3013 246.873C39.0883 248.654 41.4132 249.799 43.917 250.13C46.4208 250.461 48.9644 249.961 51.155 248.707C53.3456 247.452 55.0614 245.513 56.0376 243.189L56.3694 242.395L79.1958 246.069C79.2499 246.081 79.3062 246.078 79.3587 246.06C79.4112 246.043 79.4581 246.011 79.4944 245.97C79.5336 245.932 79.5632 245.885 79.5805 245.833C79.5978 245.781 79.6024 245.726 79.5939 245.672L75.1702 220.403C75.1596 220.348 75.136 220.296 75.1014 220.252C75.0668 220.208 75.0221 220.173 74.9711 220.149C74.9215 220.124 74.8665 220.111 74.8108 220.111C74.7551 220.111 74.7001 220.124 74.6504 220.149L54.4672 231.537L53.87 230.908C52.7888 229.768 51.4854 228.861 50.04 228.242C48.5946 227.624 47.0377 227.307 45.4649 227.31L45.4317 227.266Z" fill="#455A64"/>
<path d="M90.3325 266.759C90.2591 266.529 90.2073 266.292 90.1777 266.052C90.0782 265.523 89.9565 264.85 89.7906 264.022C89.4589 262.179 88.9944 259.608 88.4193 256.519C87.3133 250.13 85.7208 241.412 83.9956 231.779C82.2703 222.146 80.7994 213.407 79.6935 206.996C79.1737 203.884 78.7534 201.335 78.4548 199.481C78.3221 198.643 78.2226 197.959 78.1452 197.429C78.0934 197.194 78.0711 196.953 78.0788 196.712C78.154 196.939 78.2132 197.171 78.2558 197.407C78.3664 197.937 78.5101 198.61 78.676 199.437C79.0299 201.28 79.5165 203.851 80.1027 206.93C81.286 213.252 82.8675 222.003 84.5264 231.669C86.1853 241.335 87.7336 250.108 88.7732 256.452C89.304 259.63 89.7022 262.201 89.9676 263.978C90.0892 264.872 90.1998 265.556 90.2441 266.041C90.3031 266.276 90.3328 266.517 90.3325 266.759Z" fill="#455A64"/>
<path d="M62.4299 272.309C62.3643 272.073 62.3126 271.834 62.275 271.592C62.1755 271.073 62.0539 270.4 61.899 269.561C61.5562 267.719 61.0917 265.148 60.5166 262.069C59.4107 255.669 57.8181 246.952 56.0929 237.319C54.3676 227.686 52.9078 218.946 51.7908 212.546C51.271 209.424 50.8508 206.875 50.5522 205.032C50.4195 204.182 50.3199 203.509 50.2425 202.979C50.1906 202.74 50.1683 202.496 50.1761 202.251C50.26 202.48 50.3229 202.717 50.3642 202.957C50.4637 203.487 50.6075 204.16 50.7734 204.988C51.1273 206.83 51.6139 209.401 52.2 212.469C53.3834 218.803 54.9648 227.542 56.6237 237.219C58.2826 246.897 59.8309 255.647 60.8816 261.992C61.4014 265.17 61.8106 267.741 62.0649 269.528C62.1866 270.422 62.2972 271.106 62.3414 271.581C62.4004 271.819 62.4301 272.064 62.4299 272.309Z" fill="#455A64"/>
<path d="M189.114 202.152C188.633 202.519 188.122 202.848 187.588 203.134L183.319 205.639C179.692 207.735 174.66 210.593 169.086 213.727L168.986 213.782H168.887H168.655C162.296 212.679 156.489 211.575 152.397 210.814L147.476 209.854C146.867 209.76 146.267 209.613 145.684 209.412C146.301 209.44 146.914 209.51 147.52 209.622L152.464 210.406C156.644 211.09 162.417 212.083 168.765 213.208H168.986H168.787C174.372 210.086 179.438 207.283 183.164 205.274L187.533 202.935C188.035 202.626 188.564 202.364 189.114 202.152Z" fill="#263238"/>
<path d="M205.903 330.803H300.194V380.171H205.903C200.726 380.171 195.761 378.119 192.1 374.467C188.439 370.814 186.383 365.861 186.383 360.695V350.268C186.383 345.102 188.439 340.149 192.1 336.496C195.761 332.844 200.726 330.792 205.903 330.792V330.803Z" fill="#4A4E68"/>
<path d="M275.543 330.803H474.445C475.304 330.803 476.129 331.143 476.736 331.75C477.344 332.356 477.685 333.178 477.685 334.036V335.768C477.685 336.626 477.344 337.448 476.736 338.055C476.129 338.661 475.304 339.001 474.445 339.001H275.543V330.803Z" fill="#4A4E68"/>
<path d="M275.543 371.983H474.445C474.87 371.983 475.292 372.067 475.685 372.23C476.078 372.392 476.435 372.63 476.736 372.93C477.037 373.231 477.276 373.587 477.439 373.979C477.602 374.372 477.685 374.792 477.685 375.217V376.949C477.685 377.806 477.344 378.629 476.736 379.235C476.129 379.841 475.304 380.182 474.445 380.182H275.543V371.983Z" fill="#4A4E68"/>
<path d="M471.636 371.984H298.104C295.933 371.984 293.784 371.557 291.779 370.728C289.773 369.898 287.951 368.683 286.417 367.151C284.882 365.619 283.666 363.801 282.836 361.799C282.006 359.798 281.58 357.653 281.581 355.487C281.581 351.115 283.322 346.922 286.421 343.83C289.519 340.738 293.722 339.001 298.104 339.001H471.636C469.337 344.197 468.149 349.813 468.149 355.493C468.149 361.172 469.337 366.788 471.636 371.984Z" fill="#F5F5F5"/>
<path opacity="0.3" d="M281.581 380.182H206.29C201.01 380.182 195.947 378.09 192.213 374.365C188.48 370.64 186.383 365.588 186.383 360.32V350.51C186.383 345.284 188.464 340.271 192.168 336.575C195.872 332.879 200.896 330.803 206.135 330.803H283.45C265.545 341.639 266.884 367.57 281.581 380.182Z" fill="black"/>
<path d="M450.557 357.021C450.557 357.186 414.935 357.319 371.007 357.319C327.079 357.319 291.457 357.186 291.457 357.021C291.457 356.855 327.068 356.723 371.007 356.723C414.946 356.723 450.557 356.855 450.557 357.021Z" fill="#263238"/>
<path d="M466.925 364.348C466.925 364.513 431.303 364.645 387.375 364.645C343.447 364.645 307.825 364.513 307.825 364.348C307.825 364.182 343.436 364.061 387.375 364.061C431.314 364.061 466.925 364.193 466.925 364.348Z" fill="#263238"/>
<path d="M462.103 346.626C462.103 346.792 426.481 346.924 382.553 346.924C338.625 346.924 302.992 346.792 302.992 346.626C302.992 346.461 338.603 346.328 382.553 346.328C426.503 346.328 462.103 346.483 462.103 346.626Z" fill="#263238"/>
<path d="M272.867 376.717C272.867 376.883 256.189 377.015 235.63 377.015C215.071 377.015 198.393 376.883 198.393 376.717C198.393 376.552 215.06 376.419 235.63 376.419C256.2 376.419 272.867 376.552 272.867 376.717Z" fill="#263238"/>
<path d="M272.867 334.908C272.867 335.073 256.189 335.205 235.63 335.205C215.071 335.205 198.393 335.073 198.393 334.908C198.393 334.742 215.06 334.61 235.63 334.61C256.2 334.61 272.867 334.742 272.867 334.908Z" fill="#263238"/>
<path d="M164.275 414.83H291.336V478.411H164.275C159.098 478.411 154.133 476.359 150.473 472.707C146.812 469.054 144.755 464.101 144.755 458.935V434.306C144.755 429.141 146.812 424.187 150.473 420.535C154.133 416.882 159.098 414.83 164.275 414.83Z" fill="#4A4E68"/>
<path d="M259.584 414.83H516.636C517.496 414.83 518.32 415.171 518.928 415.777C519.535 416.384 519.877 417.206 519.877 418.063V422.157C519.877 423.015 519.535 423.837 518.928 424.443C518.32 425.05 517.496 425.39 516.636 425.39H259.584V414.83Z" fill="#4A4E68"/>
<path d="M259.584 467.862H516.636C517.496 467.862 518.32 468.203 518.928 468.809C519.535 469.415 519.877 470.238 519.877 471.095V475.189C519.877 476.046 519.535 476.869 518.928 477.475C518.32 478.081 517.496 478.422 516.636 478.422H259.584V467.862Z" fill="#4A4E68"/>
<path d="M512.113 467.862H288.648C283.004 467.859 277.592 465.62 273.602 461.637C269.612 457.654 267.37 452.252 267.37 446.621C267.37 443.833 267.921 441.072 268.99 438.496C270.059 435.92 271.627 433.58 273.602 431.609C275.578 429.637 277.924 428.073 280.506 427.006C283.087 425.939 285.854 425.39 288.648 425.39H512.113C509.149 432.079 507.618 439.313 507.618 446.626C507.618 453.94 509.149 461.173 512.113 467.862Z" fill="#F5F5F5"/>
<path opacity="0.3" d="M267.348 478.411H164.021C161.491 478.411 158.987 477.914 156.65 476.948C154.313 475.982 152.19 474.565 150.402 472.78C148.614 470.995 147.196 468.876 146.229 466.544C145.262 464.212 144.765 461.713 144.767 459.189V434.759C144.767 429.491 146.864 424.439 150.597 420.714C154.33 416.989 159.394 414.897 164.673 414.897H269.737C246.7 428.778 248.426 462.179 267.348 478.411Z" fill="black"/>
<path d="M484.962 448.596C484.962 448.761 439.088 448.894 382.52 448.894C325.951 448.894 280.066 448.761 280.066 448.596C280.066 448.43 325.929 448.298 382.52 448.298C439.11 448.298 484.962 448.43 484.962 448.596Z" fill="#263238"/>
<path d="M506.052 458.03C506.052 458.196 460.178 458.328 403.599 458.328C347.019 458.328 301.145 458.196 301.145 458.03C301.145 457.865 347.008 457.743 403.599 457.743C460.189 457.743 506.052 457.931 506.052 458.03Z" fill="#263238"/>
<path d="M499.881 439.835C499.881 440 454.018 440.132 397.439 440.132C340.859 440.132 294.985 440 294.985 439.835C294.985 439.669 340.848 439.537 397.439 439.537C454.029 439.537 499.881 439.669 499.881 439.835Z" fill="#263238"/>
<path d="M256.123 473.953C256.123 474.119 234.657 474.251 208.17 474.251C181.683 474.251 160.216 474.119 160.216 473.953C160.216 473.788 181.683 473.666 208.17 473.666C234.657 473.666 256.123 473.799 256.123 473.953Z" fill="#263238"/>
<path d="M256.123 420.116C256.123 420.27 234.657 420.403 208.17 420.403C181.683 420.403 160.216 420.27 160.216 420.116C160.216 419.961 181.683 419.818 208.17 419.818C234.657 419.818 256.123 419.95 256.123 420.116Z" fill="#263238"/>
<path d="M224.703 378.659H329.391V415.073H224.703C220.89 415.073 217.233 413.562 214.537 410.872C211.841 408.181 210.326 404.533 210.326 400.728V393.004C210.326 389.2 211.841 385.551 214.537 382.861C217.233 380.171 220.89 378.659 224.703 378.659Z" fill="#455A64"/>
<path d="M303.601 378.659H511.693C512.593 378.659 513.457 379.016 514.094 379.652C514.73 380.287 515.088 381.149 515.088 382.047V383.857C515.088 384.755 514.73 385.617 514.094 386.252C513.457 386.887 512.593 387.244 511.693 387.244H303.601V378.67V378.659Z" fill="#455A64"/>
<path d="M303.601 406.488H511.693C512.593 406.488 513.457 406.845 514.094 407.481C514.73 408.116 515.088 408.977 515.088 409.876V411.686C515.088 412.584 514.73 413.446 514.094 414.081C513.457 414.716 512.593 415.073 511.693 415.073H303.601V406.499V406.488Z" fill="#455A64"/>
<path d="M508.729 406.488H319.614C317.056 406.488 314.602 405.475 312.791 403.671C310.981 401.867 309.963 399.419 309.96 396.866C309.96 394.311 310.977 391.861 312.787 390.055C314.598 388.248 317.054 387.233 319.614 387.233H508.729C503.892 393.655 503.892 400.074 508.729 406.488Z" fill="#F5F5F5"/>
<path opacity="0.3" d="M309.904 415.062H224.748C222.846 415.062 220.962 414.688 219.205 413.962C217.448 413.235 215.852 412.17 214.507 410.828C213.163 409.485 212.097 407.892 211.37 406.138C210.643 404.384 210.269 402.505 210.271 400.607V393.412C210.269 391.476 210.651 389.557 211.392 387.768C212.134 385.978 213.222 384.351 214.595 382.981C215.967 381.611 217.596 380.524 219.389 379.783C221.183 379.041 223.105 378.659 225.046 378.659H311.873C293.127 386.648 294.532 405.771 309.904 415.062Z" fill="black"/>
<path d="M486.71 395.343C486.71 395.509 449.44 395.641 403.477 395.641C357.515 395.641 320.245 395.509 320.245 395.343C320.245 395.178 357.504 395.057 403.477 395.057C449.451 395.057 486.71 395.189 486.71 395.343Z" fill="#263238"/>
<path d="M503.841 400.552C503.841 400.717 466.571 400.85 420.608 400.85C374.646 400.85 337.376 400.717 337.376 400.552C337.376 400.386 374.635 400.254 420.608 400.254C466.582 400.254 503.841 400.364 503.841 400.552Z" fill="#263238"/>
<path d="M300.814 411.443C300.814 411.608 283.373 411.741 261.852 411.741C240.33 411.741 222.89 411.608 222.89 411.443C222.89 411.277 240.33 411.145 261.852 411.145C283.373 411.145 300.814 411.277 300.814 411.443Z" fill="#263238"/>
<path d="M300.814 382.952C300.814 383.117 283.373 383.239 261.852 383.239C240.33 383.239 222.89 383.117 222.89 382.952C222.89 382.786 240.33 382.654 261.852 382.654C283.373 382.654 300.814 382.786 300.814 382.952Z" fill="#263238"/>
<path d="M512.6 378.659C512.6 378.825 448.599 378.957 369.68 378.957C290.761 378.957 226.716 378.825 226.716 378.659C226.716 378.494 290.694 378.361 369.647 378.361C448.599 378.361 512.6 378.483 512.6 378.659Z" fill="#263238"/>
<path d="M397.837 346.086V365.859L404.705 361.468L412.358 365.859V346.086H397.837Z" fill="#4A4E68"/>
<path d="M467.632 149.815L433.05 178.56L380.452 282.24L413.243 297.026L464.403 195.343L467.632 149.815Z" fill="#4A4E68"/>
<g opacity="0.7">
<path d="M464.403 195.31C464.002 195.409 463.584 195.414 463.181 195.325C462.778 195.236 462.401 195.055 462.08 194.797C461.759 194.538 461.502 194.209 461.329 193.835C461.157 193.461 461.073 193.052 461.085 192.64C459.994 193.907 458.533 194.801 456.906 195.196C455.279 195.591 453.57 195.468 452.017 194.843C450.464 194.218 449.147 193.124 448.25 191.713C447.354 190.303 446.923 188.647 447.018 186.979C445.56 187.762 443.921 188.144 442.266 188.087C440.612 188.029 439.003 187.533 437.604 186.651C436.206 185.768 435.067 184.53 434.305 183.064C433.544 181.597 433.187 179.956 433.271 178.306L467.555 149.782L464.403 195.31Z" fill="white"/>
</g>
<path d="M453.72 161.379C453.72 161.379 454.251 169.964 466.305 168.463L467.632 149.815L453.72 161.379Z" fill="#4A4E68"/>
<path opacity="0.3" d="M447.062 187.012L396.355 288.85L380.452 282.229L433.05 178.505L433.315 178.284C433.236 179.667 433.479 181.049 434.023 182.323C434.749 183.995 435.929 185.432 437.429 186.472C439.271 187.727 441.508 188.272 443.722 188.006C444.887 187.88 446.019 187.544 447.062 187.012Z" fill="black"/>
<path opacity="0.3" d="M461.174 192.673L409.084 295.128L413.287 297.026L464.403 195.31C463.71 195.436 462.994 195.3 462.395 194.929C461.796 194.558 461.357 193.978 461.163 193.302C461.146 193.093 461.149 192.882 461.174 192.673Z" fill="black"/>
<path d="M446.797 177.126C446.688 177.252 446.626 177.412 446.62 177.578C446.621 177.819 446.713 178.051 446.876 178.228C447.04 178.406 447.264 178.516 447.504 178.538C448.289 178.572 449.064 178.356 449.716 177.92C450.129 177.679 450.457 177.316 450.656 176.883C450.766 176.648 450.815 176.389 450.797 176.131C450.78 175.872 450.697 175.622 450.557 175.404C450.374 175.178 450.146 174.994 449.887 174.863C449.627 174.731 449.343 174.656 449.053 174.643C448.413 174.587 447.768 174.624 447.139 174.753C445.731 174.987 444.387 175.509 443.191 176.287C442.872 176.483 442.598 176.745 442.388 177.055C442.178 177.365 442.037 177.717 441.975 178.086C441.958 178.472 442.037 178.856 442.205 179.204C442.373 179.553 442.624 179.854 442.937 180.083C443.664 180.5 444.467 180.767 445.299 180.869C446.13 180.972 446.974 180.907 447.781 180.679C449.381 180.343 450.858 179.574 452.05 178.457C453.242 177.34 454.102 175.917 454.538 174.345C454.613 173.997 454.605 173.637 454.517 173.292C454.429 172.948 454.262 172.628 454.029 172.359C453.56 171.858 452.976 171.479 452.326 171.255C451.158 170.828 449.931 170.583 448.688 170.527C446.875 170.432 445.062 170.702 443.357 171.321C442.76 171.542 442.251 171.752 441.997 171.895C441.742 172.039 441.532 172.116 441.532 172.116C442.098 171.758 442.698 171.459 443.324 171.222C445.034 170.569 446.859 170.273 448.688 170.35C449.955 170.393 451.209 170.631 452.404 171.057C453.087 171.291 453.702 171.689 454.195 172.215C454.456 172.514 454.643 172.868 454.743 173.251C454.842 173.634 454.852 174.035 454.77 174.422C454.199 176.47 452.936 178.258 451.194 179.483C449.453 180.707 447.34 181.294 445.215 181.142C444.344 181.097 443.505 180.806 442.793 180.303C442.437 180.058 442.149 179.728 441.956 179.342C441.763 178.956 441.67 178.528 441.687 178.097C441.756 177.694 441.909 177.31 442.138 176.971C442.367 176.633 442.666 176.347 443.014 176.132C444.241 175.339 445.619 174.809 447.062 174.577C447.714 174.454 448.381 174.424 449.042 174.488C449.356 174.507 449.662 174.593 449.941 174.739C450.219 174.886 450.463 175.09 450.656 175.338C450.809 175.582 450.899 175.86 450.916 176.147C450.933 176.435 450.878 176.722 450.756 176.982C450.542 177.444 450.19 177.829 449.749 178.086C449.076 178.518 448.281 178.723 447.482 178.67C447.223 178.645 446.983 178.523 446.811 178.329C446.639 178.134 446.546 177.882 446.553 177.622C446.609 177.214 446.797 177.114 446.797 177.126Z" fill="white"/>
<path d="M465.354 176.552C465.354 176.552 464.845 176.475 463.939 176.552C462.647 176.636 461.384 176.974 460.223 177.545C458.514 178.419 456.911 179.485 455.445 180.723C453.66 182.29 451.627 183.55 449.429 184.452C447.162 185.23 444.715 185.322 442.395 184.717C440.506 184.22 438.77 183.265 437.341 181.937C436.373 181.02 435.568 179.945 434.963 178.759C434.733 178.343 434.541 177.907 434.388 177.457C434.451 177.559 434.507 177.666 434.554 177.777C434.653 177.997 434.819 178.317 435.041 178.715C435.688 179.83 436.505 180.839 437.463 181.705C438.881 182.993 440.593 183.917 442.45 184.397C444.73 184.969 447.127 184.869 449.351 184.11C451.521 183.22 453.531 181.983 455.301 180.447C456.782 179.204 458.409 178.144 460.145 177.291C461.327 176.719 462.615 176.399 463.927 176.353C464.41 176.358 464.889 176.425 465.354 176.552Z" fill="white"/>
<path d="M465.155 186.891C464.521 186.25 463.677 185.858 462.777 185.788C460.592 185.768 458.417 186.088 456.33 186.737C454.215 187.305 452.157 188.066 450.181 189.01C449.418 189.374 448.82 189.694 448.4 189.903C448.194 190.034 447.975 190.145 447.748 190.234C447.94 190.084 448.144 189.948 448.356 189.826C448.754 189.583 449.351 189.23 450.103 188.855C452.068 187.854 454.132 187.062 456.263 186.494C457.435 186.174 458.624 185.923 459.824 185.743C460.806 185.564 461.807 185.524 462.799 185.622C463.477 185.694 464.12 185.954 464.657 186.372C464.847 186.52 465.015 186.695 465.155 186.891Z" fill="white"/>
<path d="M450.8 194.207C451.136 193.858 451.507 193.544 451.906 193.269C452.892 192.547 454.024 192.049 455.224 191.812C455.824 191.69 456.445 191.703 457.04 191.85C457.635 191.997 458.189 192.274 458.663 192.662C458.945 192.901 459.181 193.189 459.36 193.512C459.427 193.628 459.472 193.755 459.493 193.887C459.237 193.474 458.92 193.102 458.553 192.783C458.084 192.431 457.546 192.183 456.974 192.056C456.402 191.928 455.809 191.924 455.235 192.044C454.083 192.286 452.989 192.751 452.017 193.412C451.627 193.701 451.221 193.966 450.8 194.207Z" fill="white"/>
<path d="M466.261 170.317C466.212 170.371 466.156 170.42 466.095 170.461C465.985 170.538 465.819 170.659 465.586 170.803C465.317 170.993 465.013 171.128 464.691 171.2C464.256 171.277 463.808 171.251 463.386 171.123C462.446 170.913 461.395 170.439 460.212 170.019C458.928 169.585 457.612 169.256 456.274 169.037C453.825 168.683 451.351 168.517 448.876 168.541H446.664C446.388 168.569 446.11 168.569 445.834 168.541L446.664 168.474L448.876 168.397C451.361 168.319 453.848 168.463 456.308 168.828C457.664 169.041 458.997 169.381 460.289 169.843C461.483 170.262 462.501 170.748 463.43 170.946C463.776 171.071 464.147 171.115 464.513 171.075C464.879 171.035 465.231 170.912 465.542 170.714C465.775 170.57 466.015 170.438 466.261 170.317Z" fill="white"/>
<path d="M502.912 264.022V354.406C502.933 354.579 503.018 354.739 503.149 354.854C503.281 354.97 503.45 355.034 503.625 355.034C503.8 355.034 503.969 354.97 504.101 354.854C504.232 354.739 504.317 354.579 504.338 354.406V264.022C504.317 263.849 504.232 263.689 504.101 263.573C503.969 263.458 503.8 263.394 503.625 263.394C503.45 263.394 503.281 263.458 503.149 263.573C503.018 263.689 502.933 263.849 502.912 264.022Z" fill="#4A4E68"/>
<path d="M508.729 334.488C508.729 335.497 508.429 336.482 507.868 337.321C507.306 338.159 506.508 338.812 505.575 339.198C504.641 339.584 503.614 339.685 502.623 339.488C501.631 339.292 500.721 338.806 500.007 338.093C499.292 337.38 498.805 336.472 498.608 335.483C498.411 334.494 498.512 333.469 498.899 332.537C499.286 331.606 499.941 330.81 500.781 330.25C501.621 329.689 502.609 329.39 503.619 329.39C504.975 329.39 506.274 329.927 507.232 330.884C508.19 331.84 508.729 333.136 508.729 334.488Z" fill="#4A4E68"/>
<path d="M502.204 337.126C502.204 337.126 498.477 340.844 497.36 351.735C496.243 362.626 496 368.066 496 368.066L506.041 368.684V360.894C506.041 361.258 508.032 366.709 508.032 366.709L515.973 364.105C515.973 364.105 513.153 335.15 502.204 337.126Z" fill="#4A4E68"/>
<path d="M449.971 271.415H279.436V332.756H449.971V271.415Z" fill="#263238"/>
<path d="M509.868 260.866H218.178V271.426H509.868V260.866Z" fill="#263238"/>
<path opacity="0.3" d="M279.436 315.355C279.436 315.355 331.238 296.817 364.703 289.975C398.169 283.134 449.971 285.407 449.971 285.407V271.448H279.436V315.355Z" fill="black"/>
<path opacity="0.3" d="M323.684 260.866H218.178V271.426H323.684V260.866Z" fill="black"/>
<path d="M507.756 271.448C507.756 271.614 442.893 271.746 362.878 271.746C282.864 271.746 218.001 271.614 218.001 271.448C218.001 271.283 282.842 271.161 362.878 271.161C442.915 271.161 507.756 271.261 507.756 271.448Z" fill="#455A64"/>
<path d="M323.518 271.503C323.12 267.939 323.12 264.342 323.518 260.778C323.902 264.343 323.902 267.939 323.518 271.503Z" fill="#455A64"/>
<path d="M347.838 332.767C347.683 332.767 347.55 320.794 347.55 306.03C347.55 291.266 347.683 279.305 347.838 279.305C347.993 279.305 348.136 291.266 348.136 306.03C348.136 320.794 348.004 332.767 347.838 332.767Z" fill="#455A64"/>
<path d="M101.137 408.099L120.746 400.199L135.72 361.17L155.682 371.432C155.682 371.432 153.758 375.283 149.633 384.828C148.029 388.502 142.754 398.775 140.608 403.774C138.623 408.395 135.352 412.353 131.184 415.178C127.015 418.004 122.123 419.58 117.085 419.719L98.6823 420.193L101.137 408.099Z" fill="#FFBF9D"/>
<path d="M91.3942 400.552L88.4746 397.44C87.9072 397.069 87.2395 396.88 86.5613 396.899L77.183 397.186C76.3075 397.271 75.4622 397.55 74.7098 398.005C73.9574 398.46 73.3172 399.077 72.8367 399.812L69.4194 405.606C69.4194 405.606 67.1301 409.567 67.4176 410.538C67.5457 410.941 67.8188 411.283 68.1844 411.497C68.55 411.711 68.9821 411.782 69.3972 411.697C69.3972 411.697 69.729 413.528 70.3373 413.903C70.6894 414.08 71.0738 414.184 71.4672 414.209C71.8607 414.234 72.255 414.178 72.6266 414.047C72.7879 414.395 73.0503 414.686 73.3797 414.882C73.7091 415.079 74.0902 415.173 74.4735 415.15C74.6379 415.135 74.8008 415.106 74.9601 415.062C76.066 414.72 76.5747 412.568 76.5747 412.568L81.3303 411.697C81.3303 411.697 88.1649 416.254 90.5758 419.233C92.9868 422.212 99.2906 419.939 99.2906 419.939L101.646 408.684L91.3942 400.552Z" fill="#FFBF9D"/>
<path d="M84.4822 401.887C83.8151 402.093 83.1231 402.208 82.4251 402.229C81.1312 402.372 79.3064 402.428 77.2383 402.692L77.4595 402.527C77.104 403.289 76.6976 404.026 76.243 404.734C74.994 406.711 73.4754 408.504 71.7308 410.063C71.0454 410.75 70.2491 411.317 69.3751 411.741C69.3751 411.663 70.2046 411.001 71.4432 409.755C73.0697 408.142 74.5124 406.354 75.7453 404.425C76.1987 403.686 76.6079 402.957 76.9508 402.218L77.0171 402.075H77.1719C79.2843 401.843 81.1091 401.865 82.403 401.821C83.0965 401.771 83.7933 401.793 84.4822 401.887Z" fill="#FF9A6C"/>
<path d="M84.6923 406.356C84.1388 406.625 83.5375 406.783 82.9228 406.819C81.3953 407.03 79.8429 406.978 78.3331 406.665L78.676 406.477C78.477 407.055 78.2482 407.622 77.9903 408.177C77.1352 409.937 75.9357 411.509 74.4624 412.8C73.8872 413.369 73.2025 413.816 72.4496 414.113C72.9954 413.542 73.5713 413.001 74.1748 412.491C75.5382 411.168 76.6608 409.618 77.4926 407.912C77.7484 407.384 77.9736 406.843 78.1673 406.29L78.2557 406.047H78.499C80.5401 406.428 82.6233 406.532 84.6923 406.356Z" fill="#FF9A6C"/>
<path d="M96.6142 408.662L88.2423 404.778C87.1189 404.154 85.8743 403.778 84.5927 403.675C83.222 403.794 81.8992 404.237 80.733 404.966L76.2208 407.283C75.9775 407.415 75.7121 407.57 75.6347 407.824C75.5573 408.077 75.7674 408.519 76.0218 408.773C77.1865 409.872 78.7108 410.513 80.3128 410.578C81.9149 410.643 83.4863 410.127 84.7365 409.126C85.3475 411.114 86.3018 412.982 87.5566 414.643C88.1983 415.476 89.0442 416.129 90.0128 416.541C90.9813 416.953 92.0399 417.108 93.0863 416.993" fill="#FFBF9D"/>
<path d="M93.0642 417.103C92.9947 417.138 92.9199 417.16 92.843 417.17C92.6185 417.225 92.3885 417.255 92.1573 417.258C91.2788 417.261 90.4129 417.049 89.6358 416.64C88.4322 416.012 87.4113 415.085 86.6719 413.948C85.7541 412.487 85.0117 410.924 84.46 409.291L84.8803 409.39C84.2086 409.953 83.4317 410.378 82.5945 410.639C81.7574 410.9 80.8766 410.994 80.0031 410.913C79.0535 410.848 78.1274 410.589 77.2825 410.152C76.8499 409.923 76.4454 409.646 76.0771 409.324C75.8775 409.16 75.6959 408.975 75.5352 408.772C75.4309 408.646 75.356 408.499 75.3158 408.341C75.2757 408.182 75.2712 408.017 75.3029 407.857C75.3389 407.725 75.4016 407.602 75.4873 407.496C75.5729 407.39 75.6795 407.302 75.8006 407.239C75.9996 407.117 76.1655 407.04 76.3425 406.941L77.3821 406.411L79.428 405.308C80.699 404.565 82.0541 403.976 83.4647 403.553C84.8189 403.31 86.2159 403.523 87.435 404.16C88.5409 404.668 89.6469 405.175 90.5316 405.628L94.9553 407.835C95.5111 408.084 96.0472 408.376 96.5589 408.706C95.9737 408.533 95.4041 408.312 94.8558 408.044L90.3215 406.047L87.2027 404.657C86.0785 404.082 84.7936 403.899 83.5532 404.138C82.1925 404.562 80.886 405.144 79.6603 405.87L77.6254 406.974L76.5858 407.515C76.2319 407.691 75.8559 407.868 75.8338 408.044C75.8116 408.221 76.0881 408.651 76.431 408.927C76.7686 409.22 77.1398 409.472 77.5369 409.677C78.3103 410.077 79.1567 410.317 80.0252 410.383C81.641 410.54 83.2538 410.057 84.5153 409.037L84.8029 408.795L84.9245 409.148C85.44 410.753 86.1337 412.297 86.9926 413.749C87.6696 414.85 88.6126 415.765 89.7353 416.408C90.7557 416.952 91.9108 417.194 93.0642 417.103Z" fill="#FF9A6C"/>
<path d="M205.482 299.332C205.56 293.065 206.588 286.819 206.301 280.574C206.013 274.328 204.409 267.785 200.03 263.294C195.65 258.803 188.008 257.104 182.921 260.69L181.815 266.03C183.828 290.196 183.563 314.748 185.575 338.913C185.841 342.091 188.418 344.971 189.866 347.807C191.315 350.643 194.224 352.993 197.409 352.795C201.578 352.541 204.31 348.326 205.604 344.353C210.359 329.997 205.294 314.483 205.482 299.332Z" fill="#263238"/>
<path d="M190.375 266.836C189.536 265.244 188.458 263.789 187.179 262.521C186.534 261.891 185.754 261.415 184.897 261.128C184.041 260.842 183.131 260.752 182.235 260.866C181.814 260.919 181.412 261.078 181.069 261.329C180.727 261.58 180.454 261.915 180.278 262.301C180.001 263.095 180.599 264.166 181.439 264.088L181.616 264.243C183.496 265.905 185.409 267.527 187.356 269.109C187.82 269.541 188.365 269.879 188.96 270.102C189.258 270.211 189.582 270.233 189.893 270.167C190.204 270.101 190.49 269.948 190.718 269.727C191.415 268.955 190.906 267.73 190.375 266.836Z" fill="#4A4E68"/>
<path d="M193.925 272.993C187.666 265.357 179.261 260.955 169.373 260.855C163.844 260.756 161.488 261.959 157.474 262.996C153.454 263.964 149.901 266.307 147.432 269.617C144.59 273.644 142.201 278.157 141.659 283.068C140.95 288.085 140.71 293.157 140.94 298.218C141.172 303.304 142.81 308.227 145.673 312.441L158.546 314.648C165.658 314.891 172.868 315.123 179.802 313.545C186.737 311.967 193.461 308.204 197.166 302.146C202.319 293.672 200.174 280.618 193.925 272.993Z" fill="#263238"/>
<path d="M182.479 272.905L165.315 266.097L160.825 266.615C150.739 266.615 143.771 277.76 143.705 285.903C143.638 294.974 143.904 306.03 145.342 312.706C148.25 326.135 159.719 327.25 159.719 327.25C159.719 327.25 159.486 334.411 159.398 338.913L185.686 337.026L187.002 277.506C186.962 276.314 186.475 275.179 185.638 274.327C184.8 273.475 183.673 272.968 182.479 272.905Z" fill="#FFBF9D"/>
<path d="M165.525 309.561C165.419 308.875 165.065 308.251 164.53 307.807C164.043 307.389 163.431 307.141 162.79 307.103C162.149 307.066 161.512 307.239 160.979 307.597C160.426 308.023 159.997 308.587 159.734 309.233C159.472 309.879 159.386 310.582 159.486 311.272C159.782 311.686 160.163 312.032 160.603 312.287C161.044 312.542 161.534 312.7 162.041 312.75C162.199 312.761 162.358 312.761 162.517 312.75C163.337 312.767 164.131 312.462 164.729 311.901C165.029 311.596 165.256 311.227 165.394 310.822C165.532 310.417 165.577 309.986 165.525 309.561Z" fill="#FF9A6C"/>
<path d="M148.25 297.368C148.267 297.822 148.463 298.251 148.794 298.562C149.124 298.874 149.565 299.044 150.02 299.035C150.242 299.039 150.464 298.999 150.671 298.917C150.878 298.836 151.066 298.714 151.226 298.559C151.385 298.404 151.512 298.219 151.6 298.015C151.687 297.81 151.732 297.59 151.734 297.368C151.711 296.915 151.513 296.487 151.181 296.177C150.848 295.866 150.409 295.696 149.953 295.702C149.731 295.698 149.511 295.738 149.304 295.819C149.098 295.901 148.91 296.023 148.751 296.178C148.592 296.333 148.466 296.519 148.38 296.723C148.294 296.927 148.25 297.147 148.25 297.368Z" fill="#263238"/>
<path d="M146.779 290.439C147.001 290.648 148.272 289.611 150.097 289.512C151.922 289.413 153.415 290.273 153.592 290.03C153.769 289.788 153.437 289.523 152.818 289.126C151.976 288.61 150.995 288.367 150.009 288.43C149.035 288.479 148.102 288.834 147.343 289.446C146.835 289.92 146.658 290.339 146.779 290.439Z" fill="#263238"/>
<path d="M158.812 305.104C157.808 304.84 156.775 304.711 155.737 304.717C155.262 304.717 154.797 304.629 154.698 304.298C154.638 303.81 154.722 303.315 154.941 302.875C155.328 301.694 155.737 300.458 156.158 299.156C157.839 293.881 159.033 289.545 158.812 289.479C158.591 289.412 157.064 293.639 155.383 298.924L154.278 302.654C154.005 303.245 153.954 303.915 154.134 304.541C154.21 304.705 154.324 304.849 154.466 304.962C154.608 305.075 154.775 305.154 154.952 305.192C155.221 305.249 155.496 305.272 155.771 305.258C156.787 305.326 157.808 305.274 158.812 305.104Z" fill="#263238"/>
<path d="M159.697 327.239C166.095 326.986 172.298 324.965 177.613 321.401C177.613 321.401 173.289 331.057 159.63 330.538L159.697 327.239Z" fill="#FF9A6C"/>
<path d="M164.397 306.086C164.098 306.086 164.198 308.116 162.539 309.65C160.88 311.184 158.701 311.084 158.701 311.371C158.701 311.658 159.21 311.735 160.117 311.713C161.313 311.666 162.453 311.197 163.335 310.389C164.179 309.618 164.69 308.55 164.762 307.41C164.784 306.56 164.541 306.075 164.397 306.086Z" fill="#263238"/>
<path d="M147.41 283.895C147.752 284.326 149.168 283.95 150.849 283.995C152.53 284.039 153.946 284.403 154.3 283.995C154.454 283.785 154.244 283.355 153.636 282.891C152.814 282.358 151.852 282.078 150.871 282.086C149.89 282.059 148.923 282.316 148.084 282.825C147.476 283.244 147.266 283.675 147.41 283.895Z" fill="#263238"/>
<path d="M168.699 296.905C168.708 297.358 168.54 297.797 168.23 298.129C167.921 298.46 167.494 298.659 167.04 298.681C166.819 298.703 166.596 298.68 166.383 298.614C166.171 298.548 165.975 298.44 165.805 298.297C165.635 298.154 165.495 297.979 165.394 297.782C165.293 297.584 165.232 297.369 165.215 297.148C165.206 296.695 165.372 296.257 165.679 295.923C165.986 295.59 166.41 295.388 166.863 295.36C167.086 295.339 167.31 295.362 167.524 295.429C167.737 295.495 167.935 295.604 168.106 295.748C168.277 295.892 168.418 296.068 168.52 296.267C168.621 296.465 168.682 296.682 168.699 296.905Z" fill="#263238"/>
<path d="M172.127 289.71C171.917 289.942 170.579 288.993 168.699 289.026C166.819 289.059 165.47 290.03 165.259 289.799C165.049 289.567 165.37 289.291 165.967 288.839C166.766 288.264 167.725 287.951 168.71 287.945C169.686 287.923 170.643 288.213 171.442 288.772C172.028 289.203 172.238 289.611 172.127 289.71Z" fill="#263238"/>
<path d="M170.999 283.73C170.645 284.16 169.186 283.73 167.449 283.73C165.713 283.73 164.231 284.072 163.888 283.63C163.733 283.421 163.966 282.99 164.596 282.527C165.47 282.016 166.47 281.76 167.482 281.788C168.488 281.776 169.475 282.056 170.325 282.593C170.955 283.079 171.165 283.52 170.999 283.73Z" fill="#263238"/>
<path d="M184.691 300.259C184.691 299.255 185.675 296.817 186.67 296.607C189.313 296.044 194.124 295.989 194.545 302.742C195.12 311.978 185.697 310.643 185.697 310.378C185.697 310.113 184.857 303.746 184.691 300.259Z" fill="#FFBF9D"/>
<path d="M188.008 306.847C188.008 306.847 188.174 306.957 188.451 307.057C188.841 307.215 189.277 307.215 189.667 307.057C190.618 306.637 191.348 305.037 191.293 303.371C191.266 302.578 191.062 301.802 190.696 301.098C190.592 300.814 190.42 300.559 190.194 300.357C189.968 300.155 189.696 300.012 189.402 299.939C189.215 299.902 189.021 299.932 188.853 300.023C188.686 300.113 188.555 300.259 188.484 300.436C188.373 300.701 188.484 300.888 188.396 300.899C188.307 300.91 188.185 300.756 188.241 300.37C188.277 300.138 188.395 299.927 188.572 299.774C188.691 299.669 188.829 299.59 188.98 299.54C189.13 299.491 189.289 299.473 189.446 299.487C189.832 299.533 190.198 299.68 190.509 299.912C190.819 300.145 191.063 300.455 191.216 300.811C191.657 301.587 191.904 302.457 191.934 303.349C191.99 305.214 191.138 307.012 189.833 307.476C189.589 307.564 189.329 307.597 189.07 307.572C188.812 307.547 188.563 307.465 188.34 307.332C188.008 307.079 188.008 306.869 188.008 306.847Z" fill="#FF9A6C"/>
<path d="M187.024 296.629L184.691 299.035C174.538 289.335 154.698 265.059 155.815 266.505C160.442 264.789 165.428 264.261 170.314 264.971C177.867 266.251 192.178 270.025 191.957 278.908C191.735 287.79 187.024 296.629 187.024 296.629Z" fill="#263238"/>
<path d="M200.472 294.621C200.442 294.44 200.394 294.262 200.329 294.091C200.16 293.589 199.949 293.101 199.698 292.635C198.74 290.925 197.419 289.445 195.827 288.298C193.481 286.617 190.863 285.351 188.086 284.557C184.989 283.553 181.506 282.77 178.077 281.247C174.844 279.903 171.778 278.188 168.942 276.138C166.622 274.462 164.461 272.578 162.484 270.51C161.157 269.112 159.913 267.638 158.757 266.097L157.828 264.817C157.724 264.662 157.605 264.518 157.474 264.386C157.551 264.556 157.644 264.718 157.75 264.872C157.938 265.181 158.215 265.633 158.602 266.196C159.709 267.793 160.925 269.312 162.24 270.742C166.606 275.478 171.948 279.212 177.9 281.688C181.195 282.934 184.55 284.013 187.953 284.921C190.718 285.673 193.335 286.886 195.695 288.508C197.269 289.611 198.598 291.028 199.599 292.668C200.174 293.87 200.417 294.621 200.472 294.621Z" fill="#455A64"/>
<path d="M197.774 296.044C197.804 295.353 197.683 294.664 197.42 294.025C196.722 292.26 195.508 290.745 193.936 289.677C191.584 288.166 188.952 287.141 186.195 286.665C182.896 286.005 179.68 284.984 176.606 283.619C173.545 282.226 170.67 280.458 168.046 278.356C165.912 276.632 163.949 274.707 162.185 272.607C160.983 271.183 159.875 269.683 158.867 268.116L158.082 266.825C158.001 266.67 157.9 266.525 157.783 266.395C157.845 266.558 157.919 266.717 158.005 266.869L158.712 268.215C159.654 269.823 160.711 271.361 161.875 272.817C163.618 274.972 165.579 276.942 167.726 278.698C170.365 280.842 173.267 282.64 176.363 284.05C179.464 285.43 182.715 286.449 186.051 287.084C188.758 287.534 191.35 288.509 193.682 289.953C195.224 290.966 196.438 292.403 197.177 294.091C197.435 294.722 197.635 295.376 197.774 296.044Z" fill="#455A64"/>
<path d="M186.715 312.276C186.715 312.21 187.5 312.11 188.871 311.746C190.794 311.192 192.564 310.207 194.047 308.866C196.219 306.838 197.869 304.317 198.858 301.517C200.121 298.105 200.801 294.506 200.87 290.869C200.912 288.99 200.76 287.112 200.417 285.264C199.489 280.615 197.301 276.31 194.091 272.817C192.204 270.817 190.122 269.009 187.876 267.421C187.876 267.421 188.064 267.487 188.396 267.686C188.727 267.884 189.203 268.149 189.789 268.568C191.469 269.718 193.019 271.046 194.412 272.53C196.498 274.728 198.185 277.27 199.4 280.044C200.104 281.69 200.641 283.401 201.003 285.153C201.359 287.041 201.518 288.96 201.479 290.88C201.412 294.585 200.705 298.251 199.389 301.716C198.342 304.581 196.606 307.146 194.334 309.186C192.784 310.532 190.933 311.489 188.937 311.978C188.394 312.101 187.844 312.189 187.29 312.243C187.099 312.269 186.907 312.28 186.715 312.276Z" fill="#455A64"/>
<path d="M198.493 425.832L143.771 433.766C123.212 439.57 101.558 441.269 78.9193 439.283L161.278 477.617L194.345 478.124C194.345 478.124 204.409 478.124 206.168 469.363C207.926 460.601 209.884 433.92 209.884 433.92C209.884 433.92 203.348 428.27 198.493 425.832Z" fill="#263238"/>
<g opacity="0.3">
<path d="M198.327 448.817C199.232 454.285 199.558 459.832 199.3 465.368C200.981 463.527 202.219 461.328 202.92 458.938C203.622 456.548 203.768 454.03 203.348 451.575C202.872 448.883 201.744 445.915 203.16 443.564C204.111 441.986 206.621 440.177 206.256 438.378C206.256 438.378 204.044 438.378 202.065 438.301C200.461 438.235 197.132 438.135 197.132 438.135C198.565 441.568 198.874 445.364 198.017 448.982" fill="black"/>
</g>
<path d="M159.486 336.662L186.073 333.793L190.939 338.207L171.961 349.352L163.589 353.677L155.317 351.173L152.696 346.251L159.486 336.662Z" fill="#FFBF9D"/>
<path d="M123.643 368.96C123.643 368.96 131.982 353.004 134.039 349.517C137.556 343.57 144.125 340.204 144.125 340.204L159.486 336.662C159.486 336.662 157.894 344.386 167.449 344.872C179.614 345.545 187.168 333.915 187.168 333.915C187.168 333.915 201.036 335.338 204.863 336.938C208.689 338.538 219.528 343.073 221.12 357.44L224.836 380.91L195.529 383.117L195.927 414.367L183.474 424.53C183.474 424.53 147.719 436.811 145.43 437.617C144.324 438.003 144.612 422.841 142.057 409.843L137.235 398.157C135.283 393.49 134.128 388.529 133.818 383.481C133.63 380.171 133.718 377.633 133.718 377.633C133.718 377.633 126.198 375.062 123.643 368.96Z" fill="#455A64"/>
<path d="M146.735 425.368L195.872 410.659L195.529 383.139L220.545 381.241C220.545 381.241 218.554 395.498 218.256 402.803C217.835 413.319 212.726 428.017 209.408 431.128C206.09 434.24 145.463 437.639 145.463 437.639L146.735 425.368Z" fill="#FFBF9D"/>
<path d="M118.866 434.019C119.103 434.424 119.479 434.729 119.925 434.877C120.37 435.025 120.855 435.007 121.288 434.825C122.394 434.383 122.095 432.155 122.095 432.155L127.326 430.875C127.326 430.875 134.548 434.781 137.279 437.495C140.011 440.21 146.016 437.374 146.016 437.374L147.266 425.931L136.837 417.887C136.837 417.887 137.478 418.372 136.671 416.783C135.864 415.195 132.856 416.055 132.856 416.055C132.325 415.272 130.301 415.139 130.301 415.139L121.818 416.783C120.958 416.951 120.145 417.308 119.441 417.829C118.737 418.35 118.159 419.022 117.749 419.796L114.575 425.788C114.575 425.788 112.982 430.047 113.369 430.985C113.536 431.373 113.84 431.686 114.223 431.866C114.607 432.045 115.043 432.077 115.448 431.956C115.448 431.956 116.079 434.626 116.798 434.659C117.524 434.57 118.226 434.341 118.866 433.986V434.019Z" fill="#FFBF9D"/>
<path d="M136.439 424.53C136.439 424.618 135.333 424.596 133.475 424.817C131.109 425.117 128.795 425.737 126.596 426.659C125.389 427.174 124.224 427.783 123.112 428.48C122.128 429.131 121.089 429.694 120.812 430.477C120.752 430.646 120.737 430.827 120.768 431.003C120.799 431.178 120.875 431.343 120.989 431.481C121.164 431.71 121.402 431.883 121.675 431.978C122.139 432.121 122.416 431.978 122.438 431.978C122.46 431.978 122.183 432.232 121.619 432.132C121.285 432.058 120.984 431.88 120.757 431.625C120.594 431.45 120.48 431.236 120.425 431.004C120.371 430.772 120.379 430.529 120.447 430.301C120.636 429.787 120.975 429.341 121.42 429.021C121.863 428.679 122.327 428.337 122.847 427.995C126.015 425.924 129.655 424.683 133.431 424.386C134.435 424.272 135.45 424.32 136.439 424.53Z" fill="#FF9A6C"/>
<path d="M137.467 429.926C137.467 430.08 133.973 430.212 129.726 430.786C125.479 431.36 122.073 432.155 121.984 432C122.686 431.663 123.43 431.422 124.196 431.283C125.988 430.833 127.805 430.487 129.637 430.246C131.471 429.997 133.317 429.854 135.167 429.815C135.935 429.747 136.709 429.784 137.467 429.926Z" fill="#FF9A6C"/>
<path d="M118.899 433.799C118.809 433.508 118.75 433.208 118.722 432.905C118.608 432.074 118.541 431.238 118.523 430.4C118.513 429.817 118.55 429.234 118.633 428.657C118.736 427.977 118.973 427.324 119.33 426.737C120.066 425.376 121.066 424.176 122.272 423.206C123.465 422.233 124.79 421.434 126.209 420.833C127.385 420.398 128.611 420.112 129.859 419.984C130.964 419.862 131.761 419.829 132.358 419.796C132.662 419.751 132.972 419.751 133.276 419.796C132.182 420.046 131.074 420.23 129.958 420.348C128.755 420.524 127.575 420.835 126.441 421.275C125.081 421.881 123.808 422.668 122.659 423.614C121.513 424.534 120.546 425.656 119.806 426.924C119.215 427.97 118.921 429.156 118.954 430.356C118.866 432.486 119.02 433.799 118.899 433.799Z" fill="#FF9A6C"/>
<path d="M130.058 417.368C130.058 417.457 128.786 417.589 126.74 417.975C124.694 418.361 121.653 418.814 120.104 421.661C118.524 423.82 117.248 426.185 116.311 428.69C116.019 429.754 115.83 430.844 115.747 431.945C115.644 431.655 115.602 431.347 115.625 431.04C115.605 430.209 115.71 429.38 115.935 428.579C116.777 425.987 118.031 423.546 119.651 421.352C120.081 420.687 120.598 420.082 121.188 419.553C121.757 419.066 122.414 418.692 123.123 418.45C124.286 418.047 125.487 417.763 126.707 417.6C127.81 417.383 128.935 417.306 130.058 417.368Z" fill="#FF9A6C"/>
<path d="M135.222 435.862C135.031 435.762 134.849 435.644 134.68 435.509L133.165 434.483C131.256 433.228 129.277 432.082 127.237 431.051H127.359L122.139 432.364L122.305 432.121C122.355 432.554 122.355 432.991 122.305 433.424C122.272 433.901 122.099 434.357 121.807 434.737C121.626 434.927 121.391 435.058 121.133 435.112C120.895 435.195 120.643 435.228 120.392 435.211C119.872 435.174 119.383 434.955 119.009 434.593C118.919 434.499 118.834 434.399 118.755 434.295V434.218L119.065 434.306L118.899 434.384C118.684 434.496 118.462 434.596 118.235 434.681C118.004 434.772 117.767 434.849 117.527 434.913C117.401 434.95 117.271 434.976 117.14 434.99C116.972 435.018 116.8 434.999 116.643 434.935C116.39 434.776 116.19 434.545 116.068 434.273C115.945 434.045 115.838 433.809 115.747 433.567C115.561 433.089 115.409 432.599 115.293 432.099L115.614 432.287C115.262 432.395 114.886 432.404 114.529 432.312C114.172 432.221 113.847 432.032 113.59 431.768C113.323 431.487 113.166 431.119 113.148 430.731C113.147 430.383 113.18 430.036 113.247 429.694C113.543 428.365 113.935 427.06 114.42 425.788L116.112 422.588L117.218 420.568C117.546 419.87 117.946 419.208 118.412 418.593C118.919 418.002 119.54 417.518 120.237 417.17C120.917 416.858 121.64 416.65 122.382 416.552L130.367 415.018H130.434C130.925 415.055 131.41 415.144 131.882 415.283C132.384 415.393 132.837 415.66 133.176 416.044L132.867 415.978C133.288 415.745 133.76 415.618 134.241 415.606C134.722 415.595 135.199 415.7 135.632 415.912C136.378 416.383 136.923 417.114 137.158 417.964L137.08 417.865L144.269 423.382L146.204 424.905C146.437 425.074 146.656 425.262 146.857 425.468C146.603 425.337 146.362 425.182 146.138 425.004L144.136 423.559L136.837 418.196H136.782V418.119C136.576 417.38 136.098 416.745 135.444 416.342C135.079 416.167 134.677 416.083 134.273 416.097C133.868 416.11 133.473 416.221 133.121 416.419L132.933 416.508L132.811 416.353C132.53 416.062 132.168 415.863 131.772 415.779C131.331 415.658 130.879 415.58 130.423 415.548H130.489L122.504 417.115C121.807 417.205 121.128 417.402 120.491 417.699C119.864 418.01 119.306 418.445 118.855 418.979C118.419 419.567 118.048 420.199 117.749 420.866L116.643 422.886C116.057 423.989 115.537 425.093 114.951 426.086C114.494 427.331 114.125 428.607 113.845 429.904C113.781 430.205 113.748 430.512 113.745 430.819C113.76 431.084 113.87 431.335 114.055 431.526C114.245 431.716 114.483 431.851 114.744 431.917C115.005 431.983 115.279 431.977 115.537 431.901L115.802 431.835V432.088C115.924 432.563 116.068 433.048 116.233 433.501C116.355 433.915 116.575 434.293 116.875 434.604C116.947 434.626 117.024 434.626 117.096 434.604L117.417 434.538C117.64 434.488 117.859 434.418 118.069 434.328C118.279 434.251 118.49 434.152 118.7 434.052L118.855 433.986L119.175 434.075V434.13C119.235 434.215 119.302 434.297 119.374 434.372C119.58 434.592 119.845 434.748 120.137 434.822C120.429 434.896 120.736 434.886 121.022 434.792C121.199 434.762 121.361 434.677 121.487 434.549C121.876 433.883 122.021 433.103 121.896 432.342V432.144H122.073L127.315 430.908H127.381C129.419 431.966 131.382 433.165 133.254 434.494C133.906 434.968 134.36 435.344 134.725 435.597C134.897 435.674 135.063 435.762 135.222 435.862Z" fill="#FF9A6C"/>
<path d="M109.675 442.946C109.675 442.946 75.0043 432.077 64.1219 428.601C45.3211 422.533 33.0895 428.668 29.2187 435.355C24.1978 444.039 36.2414 460.977 40.8863 464.872C54.633 476.403 78.2005 477.959 78.2005 477.959L162.937 477.804L138.242 444.281L109.675 442.946Z" fill="#263238"/>
<path d="M114.873 458.637C100.753 460.277 86.4462 458.334 73.279 452.988C71.0326 451.975 68.7195 451.116 66.3559 450.417C64.0193 449.829 61.597 449.657 59.2005 449.909C58.2494 449.933 57.3129 450.148 56.4466 450.54C55.5803 450.933 54.8018 451.495 54.1575 452.193C52.4654 454.4 53.328 457.578 54.2681 460.204C55.374 463.294 56.4799 466.45 58.6918 468.921C61.2023 471.801 64.8518 473.457 68.5125 474.604C75.6678 476.811 83.2214 477.506 90.7196 477.793L116.466 476.392L114.873 458.637Z" fill="#E0E0E0"/>
<path d="M65.1504 450.428C65.3196 450.635 65.4506 450.87 65.5375 451.123C65.8365 451.781 66.0663 452.469 66.2232 453.175C66.7791 455.523 66.6814 457.978 65.9407 460.275C65.2001 462.572 63.8446 464.623 62.0206 466.207C61.4777 466.682 60.8928 467.106 60.2733 467.476C59.8198 467.73 59.5655 467.84 59.5433 467.807C59.5212 467.774 60.4723 467.167 61.7552 465.92C63.4384 464.314 64.6932 462.315 65.4058 460.103C66.1184 457.891 66.2663 455.536 65.8361 453.252C65.5264 451.487 65.062 450.461 65.1504 450.428Z" fill="#263238"/>
<path d="M198.172 440.828C196.159 435.134 195.827 426.77 183.408 422.753C170.988 418.737 161.61 426.439 155.229 429.109C148.847 431.779 113.977 450.869 113.977 450.869C113.977 450.869 107.408 462.555 109.277 467.719C111.146 472.883 119.64 477.981 119.64 477.981H158.646C168.71 477.981 187.4 477.639 187.4 477.639C189.903 473.546 192.145 469.3 194.113 464.927L194.445 463.25C194.478 461.915 200.174 446.521 198.172 440.828Z" fill="#263238"/>
<path d="M176.562 470.389C176.511 470.587 176.413 470.768 176.275 470.919C175.896 471.356 175.465 471.745 174.992 472.077C173.25 473.275 171.398 474.306 169.462 475.156C168.139 475.771 166.78 476.306 165.392 476.756C163.785 477.26 162.139 477.629 160.471 477.859C156.664 478.237 152.838 478.385 149.013 478.301C140.907 478.433 133.53 478.742 128.222 478.676C125.556 478.676 123.4 478.555 121.918 478.4C121.346 478.35 120.778 478.269 120.215 478.157C120.015 478.133 119.819 478.089 119.629 478.025C119.629 477.97 120.447 478.113 121.929 478.19C123.411 478.268 125.568 478.323 128.222 478.301C133.541 478.301 140.885 477.892 149.013 477.76C152.818 477.842 156.625 477.71 160.415 477.363C162.054 477.162 163.674 476.83 165.259 476.37C166.639 475.945 167.99 475.436 169.307 474.847C171.23 474.04 173.08 473.069 174.837 471.945C175.314 471.626 175.756 471.256 176.153 470.841C176.463 470.577 176.529 470.378 176.562 470.389Z" fill="#263238"/>
<path d="M119.64 477.981L119.12 477.705C118.788 477.517 118.302 477.208 117.671 476.8C115.837 475.606 114.119 474.242 112.54 472.728C111.396 471.634 110.419 470.377 109.642 468.999C108.848 467.273 108.646 465.334 109.067 463.481C110.015 459.045 111.606 454.771 113.789 450.792V450.737C120.182 447.228 127.514 443.244 135.521 438.952C139.524 436.811 143.694 434.593 148.029 432.331C150.241 431.228 152.453 430.124 154.665 429.021C156.876 427.917 159.144 426.814 161.433 425.622C164.596 423.893 167.988 422.619 171.508 421.837C173.237 421.493 174.998 421.334 176.761 421.363C178.486 421.415 180.2 421.659 181.871 422.091C185.11 422.887 188.151 424.337 190.806 426.35C192.041 427.371 193.135 428.551 194.058 429.859C194.907 431.149 195.608 432.53 196.148 433.975C196.701 435.388 197.088 436.811 197.486 438.201C197.943 439.552 198.312 440.931 198.592 442.328C198.766 444.998 198.542 447.68 197.929 450.284C197.431 452.767 196.823 455.084 196.192 457.236C195.883 458.339 195.573 459.366 195.286 460.37C194.998 461.374 194.666 462.367 194.511 463.25C194.379 463.879 194.279 464.353 194.169 464.916C193.103 468.326 191.598 471.582 189.689 474.604C189.013 475.685 188.216 476.684 187.312 477.584L187.456 477.385C187.577 477.241 187.732 477.065 187.92 476.822C188.506 476.087 189.052 475.321 189.557 474.527C191.399 471.487 192.852 468.229 193.881 464.828C194.511 464.298 194.39 463.779 194.202 463.15C194.395 462.144 194.646 461.149 194.954 460.171L195.85 457.048C196.447 454.841 197.044 452.568 197.531 450.108C198.12 447.544 198.328 444.908 198.15 442.284C197.859 440.914 197.49 439.562 197.044 438.235C196.635 436.844 196.237 435.432 195.695 434.052C195.167 432.641 194.481 431.293 193.649 430.036C192.751 428.77 191.688 427.631 190.486 426.648C186.509 423.674 181.717 421.98 176.75 421.793C175.027 421.765 173.307 421.924 171.619 422.268C168.14 423.038 164.789 424.297 161.665 426.008C159.453 427.112 157.241 428.436 154.864 429.418C152.486 430.4 150.44 431.57 148.228 432.728C143.904 434.935 139.723 437.142 135.72 439.349L113.955 451.057L114.033 450.968C111.856 454.902 110.258 459.127 109.288 463.515C108.852 465.304 109.027 467.188 109.786 468.866C110.53 470.233 111.477 471.479 112.595 472.563C114.146 474.088 115.83 475.473 117.627 476.701L119.043 477.65C119.441 477.859 119.64 477.981 119.64 477.981Z" fill="#263238"/>
<path d="M183.12 463.537C183.12 463.537 194.744 464.927 193.715 470.599C192.687 476.27 188.882 478.179 188.882 478.179L157.297 478.246C157.297 478.246 176.153 476.943 183.12 463.537Z" fill="#E0E0E0"/>
<path d="M184.248 460.789C184.246 461.341 184.125 461.887 183.894 462.389C183.467 463.658 182.831 464.847 182.014 465.909C180.913 467.457 179.372 468.641 177.591 469.308C179.057 468.21 180.403 466.96 181.605 465.578C182.619 464.058 183.503 462.456 184.248 460.789Z" fill="#263238"/>
<path d="M180.267 463.007C180.286 464.43 179.902 465.83 179.161 467.046C178.593 468.335 177.725 469.47 176.628 470.356C176.507 470.257 177.646 468.789 178.674 466.77C179.703 464.75 180.068 462.985 180.267 463.007Z" fill="#263238"/>
<path d="M195.042 476.601C194.954 476.601 195.706 475.123 196.613 472.684C198.994 466.316 199.779 459.463 198.902 452.723C198.559 450.152 198.161 448.574 198.249 448.552C198.424 448.901 198.551 449.272 198.625 449.655C198.899 450.654 199.116 451.667 199.278 452.69C200.385 459.489 199.589 466.462 196.978 472.839C196.583 473.779 196.137 474.696 195.639 475.586C195.481 475.947 195.281 476.288 195.042 476.601Z" fill="#455A64"/>
<g opacity="0.3">
<path d="M188.473 460.48C188.384 459.719 188.086 458.814 187.367 458.659C186.438 458.472 185.808 459.531 185.443 460.392C181.373 469.628 168.223 476.833 158.148 477.793C163.035 477.782 167.913 477.384 172.736 476.601C176.849 475.987 180.705 474.228 183.861 471.526C185.431 470.163 186.664 468.458 187.463 466.542C188.263 464.626 188.609 462.551 188.473 460.48Z" fill="black"/>
</g>
<path d="M111.522 447.912C109.596 447.372 107.723 446.659 105.926 445.782C104.058 445.076 102.259 444.201 100.551 443.167C102.475 443.71 104.347 444.419 106.147 445.286C108.016 445.995 109.815 446.874 111.522 447.912Z" fill="#263238"/>
<g opacity="0.2">
<path d="M122.758 443.035C107.718 440.166 92.6218 437.617 77.4705 435.388L66.19 438.941C69.353 444.811 75.6015 448.552 82.0933 450.097C88.5851 451.641 95.3645 451.277 102 450.67C109.321 449.997 116.842 448.971 123.212 445.308C123.698 445.032 124.251 444.613 124.185 444.05C124.119 443.487 123.411 443.156 122.758 443.035Z" fill="black"/>
</g>
<path d="M48.7273 398.345L67.683 440.166C68.0664 441.018 68.6872 441.742 69.4714 442.253C70.2556 442.764 71.1703 443.039 72.1067 443.046L127.403 443.763L134.371 440.022L123.455 439.228L106.468 398.555C106.204 397.922 105.759 397.38 105.188 396.998C104.618 396.615 103.948 396.408 103.261 396.403L50.2978 396.006C50.0152 395.995 49.7348 396.057 49.483 396.186C49.2312 396.314 49.0164 396.504 48.8591 396.739C48.7018 396.973 48.6071 397.243 48.584 397.525C48.561 397.806 48.6103 398.088 48.7273 398.345Z" fill="#E0E0E0"/>
<path d="M48.7274 398.345C48.6369 398.189 48.5804 398.016 48.5615 397.837C48.5265 397.572 48.5554 397.303 48.6458 397.052C48.7362 396.8 48.8855 396.574 49.0813 396.392C49.3836 396.112 49.7753 395.948 50.1872 395.928H55.0422L77.2162 396.006L92.6329 396.083L101.248 396.138H103.46C104.279 396.197 105.056 396.523 105.672 397.065C106.265 397.62 106.703 398.32 106.944 399.095L107.85 401.302C112.683 412.855 118.025 425.633 123.687 439.139L123.422 438.952L133.962 439.724H134.338L135.444 439.801L134.503 440.309L127.536 444.05H127.459H127.381L85.4664 443.476L76.1102 443.344C74.5841 443.344 73.1242 443.344 71.6091 443.255C70.8524 443.166 70.1244 442.912 69.4766 442.512C68.8289 442.112 68.277 441.574 67.86 440.938C65.3938 435.763 63.3367 431.007 61.335 426.593L52.0673 405.915C50.9614 403.498 50.1651 401.611 49.59 400.298C49.3135 399.68 49.1144 399.195 48.9596 398.841C48.8048 398.488 48.7605 398.334 48.7605 398.334C48.855 398.49 48.9399 398.653 49.0149 398.819L49.7006 400.254C50.2978 401.545 51.1604 403.421 52.2774 405.771L61.7221 426.384C63.7238 430.72 65.8693 435.597 68.2802 440.629C68.6555 441.203 69.1537 441.687 69.7389 442.045C70.3241 442.404 70.9817 442.629 71.6644 442.704C73.08 442.77 74.6172 442.759 76.0881 442.781L85.4443 442.891L127.359 443.399H127.204L134.172 439.647L134.304 440.232H133.928L123.389 439.47H123.201L123.123 439.305C117.494 425.777 112.164 412.999 107.342 401.435L106.446 399.283C106.249 398.581 105.867 397.945 105.34 397.44C104.814 396.967 104.144 396.683 103.438 396.635H101.226L92.6107 396.557L77.2051 396.403L55.0091 396.138H51.5364H50.1651C49.946 396.146 49.7309 396.199 49.5328 396.292C49.3348 396.386 49.1579 396.519 49.0131 396.683C48.8682 396.847 48.7584 397.039 48.6902 397.247C48.6221 397.455 48.5971 397.675 48.6168 397.892C48.6452 398.045 48.6822 398.196 48.7274 398.345Z" fill="#263238"/>
<path d="M121.785 443.686C121.682 443.542 121.597 443.386 121.531 443.222L120.901 441.876C120.348 440.618 119.596 438.919 118.689 436.866C116.842 432.618 114.331 426.748 111.633 420.215C108.934 413.683 106.546 407.757 104.898 403.443C104.068 401.236 103.416 399.526 102.995 398.301C102.796 397.738 102.642 397.275 102.509 396.888C102.447 396.724 102.402 396.554 102.376 396.381C102.477 396.524 102.559 396.68 102.619 396.844L103.195 398.224C103.714 399.504 104.411 401.214 105.252 403.299C107.043 407.647 109.465 413.517 112.13 420.017C114.796 426.516 117.251 432.364 119.043 436.712L121.111 441.788C121.321 442.35 121.498 442.803 121.641 443.178C121.718 443.338 121.767 443.509 121.785 443.686Z" fill="#263238"/>
<path d="M87.5013 418.615C87.5035 419.153 87.3456 419.679 87.0475 420.127C86.7494 420.576 86.3246 420.925 85.827 421.132C85.3294 421.339 84.7815 421.394 84.2527 421.289C83.724 421.185 83.2382 420.926 82.857 420.546C82.4759 420.165 82.2165 419.681 82.1119 419.153C82.0073 418.626 82.0621 418.079 82.2694 417.582C82.4767 417.086 82.8271 416.662 83.2762 416.365C83.7253 416.067 84.2528 415.91 84.7918 415.912C85.5104 415.912 86.1996 416.197 86.7077 416.704C87.2159 417.211 87.5013 417.898 87.5013 418.615Z" fill="white"/>
<path d="M141.305 351.338C141.393 351.338 140.597 352.872 139.48 355.344C136.556 361.796 134.647 368.659 133.818 375.691C133.486 378.395 133.397 380.105 133.298 380.105C133.239 379.71 133.239 379.308 133.298 378.913C133.298 378.152 133.298 377.048 133.453 375.68C134.078 368.559 136.02 361.615 139.182 355.2C139.79 353.975 140.287 352.993 140.719 352.353C140.872 351.992 141.069 351.652 141.305 351.338Z" fill="#263238"/>
<path d="M224.836 380.91C224.639 380.971 224.434 381.004 224.228 381.01L222.469 381.175L215.9 381.727L193.439 383.415H193.151V383.128C192.963 380.149 192.764 377.004 192.565 373.782C192.244 368.155 191.968 362.748 191.879 357.904C191.593 353.54 192.589 349.187 194.744 345.379C196.223 342.811 198.406 340.717 201.036 339.344C201.746 338.988 202.487 338.697 203.248 338.472C203.513 338.389 203.783 338.323 204.056 338.273C204.056 338.361 202.95 338.593 201.125 339.542C198.589 340.963 196.495 343.056 195.075 345.589C193.026 349.359 192.108 353.638 192.432 357.915C192.543 362.781 192.83 368.144 193.151 373.771C193.35 376.993 193.538 380.138 193.726 383.106L193.416 382.841L215.9 381.363L222.536 380.977L224.294 380.91H224.836Z" fill="#263238"/>
<path d="M169.727 400.022C169.386 399.956 169.058 399.837 168.754 399.669C168.374 399.51 168.004 399.325 167.648 399.117C167.171 398.861 166.71 398.577 166.266 398.268C165.089 397.476 164.003 396.558 163.025 395.531C161.843 394.258 160.805 392.86 159.929 391.36C159.084 389.844 158.413 388.237 157.927 386.571C157.542 385.21 157.305 383.812 157.219 382.4C157.187 381.86 157.187 381.318 157.219 380.778C157.221 380.368 157.25 379.959 157.308 379.553C157.318 379.203 157.385 378.856 157.507 378.527C157.617 378.527 157.429 380.017 157.662 382.367C157.801 383.739 158.071 385.096 158.469 386.417C158.978 388.032 159.648 389.592 160.471 391.073C161.317 392.534 162.315 393.902 163.446 395.156C164.386 396.172 165.419 397.099 166.531 397.926C168.411 399.327 169.783 399.923 169.727 400.022Z" fill="#263238"/>
</g>
<defs>
<clipPath id="clip0_115_423">
<rect width="522" height="480" fill="white"/>
</clipPath>
</defs>
</svg>
